<?xml version="1.0" standalone="no"?>
<!DOCTYPE svg PUBLIC "-//W3C//DTD SVG 1.1//EN" "http://www.w3.org/Graphics/SVG/1.1/DTD/svg11.dtd" >
<svg>
<metadata>
Created by FontForge 20090914 at Wed Feb  1 09:38:21 2017
 By www-data
&#194;&#169;2008 Charles Casimiro Design. All rights reserved.
</metadata>
<defs>
<font id="Airborne" horiz-adv-x="1300" >
  <font-face 
    font-family="Airborne"
    font-weight="400"
    font-stretch="normal"
    units-per-em="2048"
    panose-1="2 0 0 0 0 0 0 0 0 0"
    ascent="1638"
    descent="-410"
    x-height="1500"
    cap-height="1500"
    bbox="-97 -350 2490 1833"
    underline-thickness="48"
    underline-position="-140"
    unicode-range="U+0020-U+25CA"
  />
<missing-glyph 
d="M111 0v1280h1079v-1280h-1079zM213 102h875v1076h-875v-1076z" />
    <glyph glyph-name=".notdef" 
d="M111 0v1280h1079v-1280h-1079zM213 102h875v1076h-875v-1076z" />
    <glyph glyph-name="space" unicode=" " horiz-adv-x="650" 
 />
    <glyph glyph-name="exclam" unicode="!" horiz-adv-x="480" 
d="M112 1500h257v-536l-50 -535h-158l-49 535v536zM111 258h258v-258h-258v258z" />
    <glyph glyph-name="quotedbl" unicode="&#x22;" horiz-adv-x="739" 
d="M75 1500h258l-30 -598h-198zM406 1500h258l-30 -598h-198z" />
    <glyph glyph-name="numbersign" unicode="#" horiz-adv-x="1193" 
d="M182 1187h147l26 166h237l-22 -166h170l24 166h237l-23 -166h104v-258h-144l-37 -259l112 2l-1 -257l-148 -1l-31 -207h-241l30 206h-170l-31 -206h-235l30 206l-105 1v258h144l38 257h-111v258zM662 671l38 258h-170l-38 -258h170z" />
    <glyph glyph-name="dollar" unicode="$" 
d="M111 295l215 -215h649l215 215v369l-215 215h-549l-66 67v149l67 68h448l67 -68v-100h248v210l-215 215h-649l-215 -215v-369l215 -215h550l67 -68v-147l-67 -67h-450l-66 67l-1 99l-248 1v-211zM534 -100h231v1700h-231v-1700z" />
    <glyph glyph-name="percent" unicode="%" horiz-adv-x="1468" 
d="M396 229l-182 181l896 898l182 -182zM763 361c0 79.333 30.833 148.67 92.5 208.003s133.5 89 215.5 89c80 0 147.5 -27.833 202.5 -83.5s82.5 -125.834 82.5 -210.501s-29 -155.834 -87 -213.501s-128 -86.5 -210 -86.5c-79.333 0 -148.5 29.167 -207.5 87.5
s-88.5 128.166 -88.5 209.499zM990 291.004c19.333 -19.333 42.332 -29.001 68.999 -29.001c27.333 0 50.5 9.5 69.5 28.5s28.5 42.833 28.5 71.5c0 28 -9 51.333 -27 70s-40.333 28 -67 28c-27.333 0 -51.166 -10 -71.499 -30s-30.5 -43 -30.5 -69
c0 -27.333 9.66699 -50.666 29 -69.999zM110.999 1143c0 79.333 30.833 148.67 92.5 208.003s133.5 89 215.5 89c80 0 147.5 -27.833 202.5 -83.5s82.5 -125.834 82.5 -210.501s-29 -155.834 -87 -213.501s-128 -86.5 -210 -86.5c-79.333 0 -148.5 29.167 -207.5 87.5
s-88.5 128.166 -88.5 209.499zM337.999 1073.01c19.333 -19.333 42.332 -29.001 68.999 -29.001c27.333 0 50.5 9.5 69.5 28.5s28.5 42.833 28.5 71.5c0 28 -9 51.333 -27 70s-40.333 28 -67 28c-27.333 0 -51.166 -10 -71.499 -30s-30.5 -43 -30.5 -69
c0 -27.333 9.66699 -50.666 29 -69.999z" />
    <glyph glyph-name="ampersand" unicode="&#x26;" 
d="M1133 0h-807l-215 215v401l134 134l-134 134v401l215 215h424l215 -215v-200h-258v71l-87 86h-165l-86 -86l-1 -190l88 -87h420l1 74h257l-1 -74h114v-258h-114v-621zM370 345l87 -87h419v363h-419l-87 -87v-189z" />
    <glyph glyph-name="quotesingle" unicode="'" horiz-adv-x="475" 
d="M111 1500h253l-29 -504h-195z" />
    <glyph glyph-name="parenleft" unicode="(" horiz-adv-x="649" 
d="M111 85l215 -215h212v258h-82l-86 87v1070l87 88h81v257h-212l-215 -215v-1330z" />
    <glyph glyph-name="parenright" unicode=")" horiz-adv-x="649" 
d="M111 1631h212l215 -215v-1331l-214 -215h-212l-1 258h82l87 87v1071l-86 87h-83v258z" />
    <glyph glyph-name="asterisk" unicode="*" horiz-adv-x="973" 
d="M217 1418l106 -196h-212v-187h212l-106 -188l163 -90l115 180l106 -180l155 90l-106 188h212v187h-212l98 196l-155 82l-115 -180l-106 180z" />
    <glyph glyph-name="plus" unicode="+" horiz-adv-x="1201" 
d="M111 879h361v369h256v-369h362v-258h-361v-375h-258v375h-360v258z" />
    <glyph glyph-name="comma" unicode="," horiz-adv-x="499" 
d="M111 342h277v-277l-142 -220l-117 76l96 144h-114v277z" />
    <glyph glyph-name="hyphen" unicode="-" horiz-adv-x="761" 
d="M176 879h410v-258h-410v258z" />
    <glyph glyph-name="hyphen" unicode="&#x2010;" horiz-adv-x="761" 
d="M176 879h410v-258h-410v258z" />
    <glyph glyph-name="period" unicode="." horiz-adv-x="499" 
d="M111 277h277v-277h-277v277z" />
    <glyph glyph-name="slash" unicode="/" 
d="M293 211l-182 181l896 898l182 -182z" />
    <glyph glyph-name="zero" unicode="0" 
d="M111 215l215 -215h649l215 215v1070l-215 215h-649l-215 -215v-1070zM369 1155l87 87h389l87 -87v-810l-87 -87h-389l-87 87v810z" />
    <glyph glyph-name="one" unicode="1" horiz-adv-x="565" 
d="M70 1500h365v-1500h-258v1242h-107v258z" />
    <glyph glyph-name="two" unicode="2" 
d="M1190 258v-258h-1079v634l215 215h519l86 87v219l-87 88h-388l-87 -88v-120h-258v250l215 215h649l215 -215v-479l-215 -215h-520l-86 -88v-245h821z" />
    <glyph glyph-name="three" unicode="3" 
d="M111 215l215 -215h649l215 215v401l-134 134l134 134v401l-215 215h-649l-215 -215v-250h258v121l87 86h390l86 -86l1 -190l-88 -87h-369v-258h370l86 -86l1 -189l-88 -88h-388l-88 87v120h-258v-250z" />
    <glyph glyph-name="four" unicode="4" horiz-adv-x="1301" 
d="M1192 368h-129v-368h-257v368h-690v256l690 874h257v-874h129v-256zM806 624v475l-381 -475h381z" />
    <glyph glyph-name="five" unicode="5" 
d="M111 215l215 -215h649l215 215v536l-215 215h-586v276h761v258h-1019v-792h715l87 -88v-274l-87 -88h-390l-87 88v119l-258 1v-251z" />
    <glyph glyph-name="six" unicode="6" 
d="M111 215l215 -215h649l215 215v449l-215 215h-606v277l88 87h388l87 -87v-121h258v250l-215 215h-649l-215 -215v-1070zM369 621h476l87 -87v-189l-87 -87h-389l-87 87v276z" />
    <glyph glyph-name="seven" unicode="7" 
d="M432 0l485 1243h-785v257h1052l-1 -286l-475 -1214h-276z" />
    <glyph glyph-name="eight" unicode="8" 
d="M111 215l215 -215h649l215 215v401l-134 134l134 134v401l-215 215h-649l-215 -215v-401l134 -134l-134 -134v-401zM369 1155l87 87h389l87 -87v-189l-87 -87h-389l-87 87v189zM369 534l87 87h389l87 -87v-189l-87 -87h-389l-87 87v189z" />
    <glyph glyph-name="nine" unicode="9" 
d="M1190 1285l-215 215h-649l-215 -215v-449l215 -215h606v-277l-88 -87h-388l-87 87v121h-258v-250l215 -215h649l215 215v1070zM932 879h-476l-87 87v189l87 87h389l87 -87v-276z" />
    <glyph glyph-name="colon" unicode=":" horiz-adv-x="499" 
d="M111 620h277v-277h-277v277zM111 1156h277v-277h-277v277z" />
    <glyph glyph-name="semicolon" unicode=";" horiz-adv-x="499" 
d="M111 858h277v-277h-277v277zM111 342h277v-277l-142 -220l-117 76l96 144h-114v277z" />
    <glyph glyph-name="less" unicode="&#x3c;" horiz-adv-x="1033" 
d="M111 751l628 630l183 -182l-449 -449l449 -448l-183 -182z" />
    <glyph glyph-name="equal" unicode="=" horiz-adv-x="1197" 
d="M111 1097h975v-258h-975v258zM111 661h975v-258h-975v258z" />
    <glyph glyph-name="greater" unicode="&#x3e;" horiz-adv-x="1033" 
d="M922 751l-628 630l-183 -182l449 -449l-449 -448l183 -182z" />
    <glyph glyph-name="question" unicode="?" 
d="M828 656h174l188 188v441l-215 215h-649l-215 -215v-250h258v121l87 87l390 -1l86 -86l1 -190l-88 -87h-171l-183 -183v-268h258v149zM491 258h259v-258h-259v258z" />
    <glyph glyph-name="at" unicode="@" horiz-adv-x="1506" 
d="M907 1002l33 61.001h165l-106 -466c-1.33301 -6 -2.16602 -10.5 -2.49902 -13.5s-0.5 -5.83301 -0.5 -8.5c0 -12 2.83301 -21 8.5 -27s13.5 -9 23.5 -9c58 0 110.333 35.167 157 105.5s70 152.166 70 245.499c0 116.667 -39.5 211 -118.5 283s-183.833 108 -314.5 108
c-64.667 0 -125 -8.83301 -181 -26.5s-107 -43.834 -153 -78.501c-70 -53.333 -124 -119.833 -162 -199.5s-57 -166.5 -57 -260.5c0 -145.333 45.333 -261.333 136 -348s212 -130 364 -130c72.667 0 142.334 11.667 209.001 35s129.667 58 189 104l79 -119
c-74.667 -60 -152.334 -104.667 -233.001 -134s-167 -44 -259 -44c-85.333 0 -165.833 13.5 -241.5 40.5s-142.167 65.833 -199.5 116.5c-68 58.667 -118.667 127.667 -152 207s-50 168.666 -50 267.999c0 86.667 12.5 168.834 37.5 246.501s62.167 148.167 111.5 211.5
c67.333 88 149.166 155.333 245.499 202s200.833 70 313.5 70c175.333 0 317.333 -51 426 -153s163 -234 163 -396c0 -84.667 -15.333 -162.5 -46 -233.5s-75 -131.167 -133 -180.5c-32 -27.333 -67 -48.166 -105 -62.499s-77.333 -21.5 -118 -21.5c-50 0 -88 9.5 -114 28.5
s-41 47.5 -45 85.5c-26.667 -39.333 -55.5 -67.833 -86.5 -85.5s-67.5 -26.5 -109.5 -26.5c-78 0 -136.5 21.667 -175.5 65s-58.5 108.333 -58.5 195c0 122 32.5 223.833 97.5 305.5s145.833 122.5 242.5 122.5c33.333 0 62.833 -7 88.5 -21s46.167 -34.667 61.5 -62z
M829 692.001l32.001 145.001c-3.33301 33.333 -13 59.333 -29 78s-36.667 28 -62 28c-42.667 0 -80.334 -28.833 -113.001 -86.5s-49 -125.834 -49 -204.501c0 -35.333 6.83301 -62.833 20.5 -82.5s33.167 -29.5 58.5 -29.5c32.667 0 62 13.667 88 41s44 64.333 54 111z" />
    <glyph glyph-name="A" unicode="A" horiz-adv-x="1305" 
d="M45 0l447 1500h322l446 -1500h-268l-100 331h-480l-98 -331h-269zM486 589h332l-166 557z" />
    <glyph glyph-name="B" unicode="B" 
d="M111 0h864l215 215v401l-134 134l134 134v401l-215 215h-864v-1500zM369 1242h476l87 -87v-189l-87 -87h-476v363zM369 621h476l87 -87v-189l-87 -87h-476v363z" />
    <glyph glyph-name="C" unicode="C" 
d="M111 215l215 -215h649l215 215v272h-258v-141l-87 -88h-389l-86 87v810l87 88h388l87 -88v-142h258v272l-215 215h-649l-215 -215v-1070z" />
    <glyph glyph-name="D" unicode="D" 
d="M111 0h864l215 215v1070l-215 215h-864v-1500zM369 1242h476l87 -87v-810l-87 -87h-476v984z" />
    <glyph glyph-name="E" unicode="E" horiz-adv-x="1221" 
d="M111 1500h999v-258h-741v-363h578v-258h-578v-363h741v-258h-999v1500z" />
    <glyph glyph-name="F" unicode="F" horiz-adv-x="1221" 
d="M111 1500h999v-258h-741v-363h578v-258h-578v-621h-258v1500z" />
    <glyph glyph-name="G" unicode="G" horiz-adv-x="1298" 
d="M109 215l215 -215h649l215 215v594h-460v-258h202v-206l-87 -87h-389l-86 87v810l87 88h388l87 -88v-142h258v272l-215 215h-649l-215 -215v-1070z" />
    <glyph glyph-name="H" unicode="H" 
d="M111 1500h258v-621h563v621h258v-1500h-258v621h-563v-621h-258v1500z" />
    <glyph glyph-name="I" unicode="I" horiz-adv-x="480" 
d="M111 1500h258v-1500h-258v1500z" />
    <glyph glyph-name="J" unicode="J" 
d="M111 215l215 -215h649l215 215v1285h-257v-1154l-87 -88h-390l-87 88v141h-258v-272z" />
    <glyph glyph-name="K" unicode="K" 
d="M1240 0h-293l-485 666l-93 -99v-567h-257v1500h257v-582l551 582h320l-594 -635z" />
    <glyph glyph-name="L" unicode="L" horiz-adv-x="1221" 
d="M111 1500h258v-1242h741v-258h-999v1500z" />
    <glyph glyph-name="M" unicode="M" horiz-adv-x="1660" 
d="M111 1500h369l350 -998l350 998h370l-1 -1500h-258v1069l-349 -1069h-223l-350 1068v-1068h-258v1500z" />
    <glyph glyph-name="N" unicode="N" 
d="M111 0v1500h377l444 -1094v1094h258v-1500h-375l-446 1092v-1092h-258z" />
    <glyph glyph-name="O" unicode="O" 
d="M111 215l215 -215h649l215 215v1070l-215 215h-649l-215 -215v-1070zM369 1155l87 87h389l87 -87v-810l-87 -87h-389l-87 87v810z" />
    <glyph glyph-name="P" unicode="P" 
d="M111 0h258v621h606l215 215v449l-215 215h-864v-1500zM369 1242h476l87 -87v-189l-87 -87h-476v363z" />
    <glyph glyph-name="Q" unicode="Q" 
d="M111 215l215 -215h538l149 -151l163 164l-94 93l108 109v1070l-215 215h-649l-215 -215v-1070zM369 1155l87 87h389l87 -87v-810l-44 -45l-239 239l-164 -163l117 -118h-146l-87 87v810z" />
    <glyph glyph-name="R" unicode="R" 
d="M111 0h258v621h333l215 -621h274l-216 621l215 215v449l-215 215h-864v-1500zM369 1242h476l87 -87v-189l-87 -87h-476v363z" />
    <glyph glyph-name="S" unicode="S" 
d="M111 215l215 -215h649l215 215v449l-215 215h-519l-86 87v189l87 88h388l87 -88v-120h258v250l-215 215h-649l-215 -215v-449l215 -215h520l87 -88v-187l-88 -88h-389l-87 87v120h-258v-250z" />
    <glyph glyph-name="T" unicode="T" horiz-adv-x="1221" 
d="M111 1500h999v-258h-371v-1242h-258v1242h-370v258z" />
    <glyph glyph-name="U" unicode="U" 
d="M111 215l215 -215h649l215 215v1285h-258l1 -1154l-88 -88h-389l-86 87v1155h-259v-1285z" />
    <glyph glyph-name="V" unicode="V" horiz-adv-x="1303" 
d="M1259 1500l-447 -1500h-322l-446 1500h268l340 -1146l338 1146h269z" />
    <glyph glyph-name="W" unicode="W" horiz-adv-x="1846" 
d="M1051 1500l243 -1052l264 1052h245l-364 -1501l-279 1l-236 968l-233 -968h-283l-364 1500h249l263 -1052l243 1052h252z" />
    <glyph glyph-name="X" unicode="X" 
d="M936 0h292l-431 750l430 750h-294l-283 -494l-285 494h-294l432 -750l-432 -750h291l288 498z" />
    <glyph glyph-name="Y" unicode="Y" 
d="M779 0v647l449 853h-284l-293 -554l-295 554h-284l449 -850v-650h258z" />
    <glyph glyph-name="Z" unicode="Z" horiz-adv-x="1242" 
d="M111 1500h1020v-258l-709 -984h709v-258h-1020v251l709 991h-709v258z" />
    <glyph glyph-name="bracketleft" unicode="[" horiz-adv-x="649" 
d="M111 -130h427v258h-168v1245h168v257h-427v-1760z" />
    <glyph glyph-name="backslash" unicode="\" 
d="M1190 393l-183 -183l-896 898l181 182z" />
    <glyph glyph-name="bracketright" unicode="]" horiz-adv-x="649" 
d="M111 1630h427v-1760h-426l-1 258h169v1245h-169v257z" />
    <glyph glyph-name="asciicircum" unicode="^" horiz-adv-x="1067" 
d="M1011 1111l-167 -168l-309 309l-313 -313l-167 168l480 480z" />
    <glyph glyph-name="underscore" unicode="_" 
d="M-10 -92h1320v-258h-1320v258z" />
    <glyph glyph-name="grave" unicode="`" horiz-adv-x="597" 
d="M486 1696l-303 131l-72 -166l303 -131z" />
    <glyph glyph-name="a" unicode="a" horiz-adv-x="1305" 
d="M45 0l447 1500h322l446 -1500h-268l-100 331h-480l-98 -331h-269zM486 589h332l-166 557z" />
    <glyph glyph-name="b" unicode="b" 
d="M111 0h864l215 215v401l-134 134l134 134v401l-215 215h-864v-1500zM369 1242h476l87 -87v-189l-87 -87h-476v363zM369 621h476l87 -87v-189l-87 -87h-476v363z" />
    <glyph glyph-name="c" unicode="c" 
d="M111 215l215 -215h649l215 215v272h-258v-141l-87 -88h-389l-86 87v810l87 88h388l87 -88v-142h258v272l-215 215h-649l-215 -215v-1070z" />
    <glyph glyph-name="d" unicode="d" 
d="M111 0h864l215 215v1070l-215 215h-864v-1500zM369 1242h476l87 -87v-810l-87 -87h-476v984z" />
    <glyph glyph-name="e" unicode="e" horiz-adv-x="1221" 
d="M111 1500h999v-258h-741v-363h578v-258h-578v-363h741v-258h-999v1500z" />
    <glyph glyph-name="f" unicode="f" horiz-adv-x="1221" 
d="M111 1500h999v-258h-741v-363h578v-258h-578v-621h-258v1500z" />
    <glyph glyph-name="g" unicode="g" horiz-adv-x="1298" 
d="M109 215l215 -215h649l215 215v594h-460v-258h202v-206l-87 -87h-389l-86 87v810l87 88h388l87 -88v-142h258v272l-215 215h-649l-215 -215v-1070z" />
    <glyph glyph-name="h" unicode="h" 
d="M111 1500h258v-621h563v621h258v-1500h-258v621h-563v-621h-258v1500z" />
    <glyph glyph-name="i" unicode="i" horiz-adv-x="480" 
d="M111 1500h258v-1500h-258v1500z" />
    <glyph glyph-name="j" unicode="j" 
d="M111 215l215 -215h649l215 215v1285h-257v-1154l-87 -88h-390l-87 88v141h-258v-272z" />
    <glyph glyph-name="k" unicode="k" 
d="M1240 0h-293l-485 666l-93 -99v-567h-257v1500h257v-582l551 582h320l-594 -635z" />
    <glyph glyph-name="l" unicode="l" horiz-adv-x="1221" 
d="M111 1500h258v-1242h741v-258h-999v1500z" />
    <glyph glyph-name="m" unicode="m" horiz-adv-x="1660" 
d="M111 1500h369l350 -998l350 998h370l-1 -1500h-258v1069l-349 -1069h-223l-350 1068v-1068h-258v1500z" />
    <glyph glyph-name="n" unicode="n" 
d="M111 0v1500h377l444 -1094v1094h258v-1500h-375l-446 1092v-1092h-258z" />
    <glyph glyph-name="o" unicode="o" 
d="M111 215l215 -215h649l215 215v1070l-215 215h-649l-215 -215v-1070zM369 1155l87 87h389l87 -87v-810l-87 -87h-389l-87 87v810z" />
    <glyph glyph-name="p" unicode="p" 
d="M111 0h258v621h606l215 215v449l-215 215h-864v-1500zM369 1242h476l87 -87v-189l-87 -87h-476v363z" />
    <glyph glyph-name="q" unicode="q" 
d="M111 215l215 -215h538l149 -151l163 164l-94 93l108 109v1070l-215 215h-649l-215 -215v-1070zM369 1155l87 87h389l87 -87v-810l-44 -45l-239 239l-164 -163l117 -118h-146l-87 87v810z" />
    <glyph glyph-name="r" unicode="r" 
d="M111 0h258v621h333l215 -621h274l-216 621l215 215v449l-215 215h-864v-1500zM369 1242h476l87 -87v-189l-87 -87h-476v363z" />
    <glyph glyph-name="s" unicode="s" 
d="M111 215l215 -215h649l215 215v449l-215 215h-519l-86 87v189l87 88h388l87 -88v-120h258v250l-215 215h-649l-215 -215v-449l215 -215h520l87 -88v-187l-88 -88h-389l-87 87v120h-258v-250z" />
    <glyph glyph-name="t" unicode="t" horiz-adv-x="1221" 
d="M111 1500h999v-258h-371v-1242h-258v1242h-370v258z" />
    <glyph glyph-name="u" unicode="u" 
d="M111 215l215 -215h649l215 215v1285h-258l1 -1154l-88 -88h-389l-86 87v1155h-259v-1285z" />
    <glyph glyph-name="v" unicode="v" horiz-adv-x="1303" 
d="M1259 1500l-447 -1500h-322l-446 1500h268l340 -1146l338 1146h269z" />
    <glyph glyph-name="w" unicode="w" horiz-adv-x="1846" 
d="M1051 1500l243 -1052l264 1052h245l-364 -1501l-279 1l-236 968l-233 -968h-283l-364 1500h249l263 -1052l243 1052h252z" />
    <glyph glyph-name="x" unicode="x" 
d="M936 0h292l-431 750l430 750h-294l-283 -494l-285 494h-294l432 -750l-432 -750h291l288 498z" />
    <glyph glyph-name="y" unicode="y" 
d="M779 0v647l449 853h-284l-293 -554l-295 554h-284l449 -850v-650h258z" />
    <glyph glyph-name="z" unicode="z" horiz-adv-x="1242" 
d="M111 1500h1020v-258l-709 -984h709v-258h-1020v251l709 991h-709v258z" />
    <glyph glyph-name="braceleft" unicode="{" horiz-adv-x="820" 
d="M709 1631l0.000976562 -193.998c-5.33301 0 -13 0.333008 -23 1s-17 1 -21 1c-48.667 0 -84 -11.833 -106 -35.5s-33 -74.167 -33 -151.5v-222c0 -92 -14 -157.167 -42 -195.5s-58.333 -65.833 -91 -82.5c32.667 -16.667 63 -43.834 91 -81.501s42 -102.5 42 -194.5v-223
c0 -76 10.833 -125.833 32.5 -149.5s57.167 -35.5 106.5 -35.5c4 0 11 0.333008 21 1s17.667 1 23 1v-194c-8.66699 0 -20.667 -0.333008 -36 -1s-27 -1 -35 -1c-61.333 0 -112.833 3.66699 -154.5 11s-76.834 18.666 -105.501 33.999
c-35.333 21.333 -60.333 49.833 -75 85.5s-22 97.5 -22 185.5v234c0 84.667 -15.833 144.334 -47.5 179.001s-59.834 52 -84.501 52c-4 0 -10.333 0.166992 -19 0.5s-15 0.5 -19 0.5v194h19h19c24 0 52 17.5 84 52.5s48 95.167 48 180.5v233c0 88 7.33301 150 22 186
s39.667 64.667 75 86c28.667 15.333 63.834 26.666 105.501 33.999s93.167 11 154.5 11c8 0 19.667 -0.333008 35 -1s27.333 -1 36 -1z" />
    <glyph glyph-name="bar" unicode="|" horiz-adv-x="479" 
d="M111 1630h257v-1760h-257v1760z" />
    <glyph glyph-name="braceright" unicode="}" horiz-adv-x="820" 
d="M111 1631l-0.000976562 -193.998c5.33301 0 13 0.333008 23 1s17 1 21 1c48.667 0 84 -11.833 106 -35.5s33 -74.167 33 -151.5v-222c0 -92 14 -157.167 42 -195.5s58.333 -65.833 91 -82.5c-32.667 -16.667 -63 -43.834 -91 -81.501s-42 -102.5 -42 -194.5v-223
c0 -76 -10.833 -125.833 -32.5 -149.5s-57.167 -35.5 -106.5 -35.5c-4 0 -11 0.333008 -21 1s-17.667 1 -23 1v-194c8.66699 0 20.667 -0.333008 36 -1s27 -1 35 -1c61.333 0 112.833 3.66699 154.5 11s76.834 18.666 105.501 33.999c35.333 21.333 60.333 49.833 75 85.5
s22 97.5 22 185.5v234c0 84.667 15.833 144.334 47.5 179.001s59.834 52 84.501 52c4 0 10.333 0.166992 19 0.5s15 0.5 19 0.5v194h-19h-19c-24 0 -52 17.5 -84 52.5s-48 95.167 -48 180.5v233c0 88 -7.33301 150 -22 186s-39.667 64.667 -75 86
c-28.667 15.333 -63.834 26.666 -105.501 33.999s-93.167 11 -154.5 11c-8 0 -19.667 -0.333008 -35 -1s-27.333 -1 -36 -1z" />
    <glyph glyph-name="asciitilde" unicode="~" horiz-adv-x="1132" 
d="M1021 780l-36.999 -55.002c-26 -38.667 -58.167 -74.167 -96.5 -106.5s-89.166 -48.5 -152.499 -48.5c-55.333 0 -128 30 -218 90c-37.333 27.333 -72 41 -104 41c-35.333 -1.33301 -61.833 -9.16602 -79.5 -23.499s-41.5 -45.5 -71.5 -93.5l-151 148l30 44
c20 31.333 53 66.833 99 106.5s101 59.5 165 59.5s132.667 -29.667 206 -89c32 -24 59.667 -38 83 -42c25.333 -3.33301 47.166 -1.16602 65.499 6.50098s40.166 24.5 65.499 50.5l41 56z" />
    <glyph glyph-name="nonbreakingspace" unicode="&#xa0;" horiz-adv-x="498" 
 />
    <glyph glyph-name="exclamdown" unicode="&#xa1;" horiz-adv-x="480" 
d="M368 0h-257v536l50 535h158l49 -535v-536zM369 1242h-258v258h258v-258z" />
    <glyph glyph-name="cent" unicode="&#xa2;" 
d="M534 -50h231v1600h-231v-1600zM111 341l215 -215h649l215 215v264h-258v-133l-87 -88h-389l-86 87v558l87 88h388l87 -88v-133h258v263l-215 215h-649l-215 -215v-818z" />
    <glyph glyph-name="sterling" unicode="&#xa3;" horiz-adv-x="1301" 
d="M111 258v-258h1079v410h-258v-152l-502 1v343l422 -1v258h-423v296l87 88h238l87 -88v-120h258v250l-215 215h-499l-215 -215v-426h-59v-257h59v-344h-59z" />
    <glyph glyph-name="currency" unicode="&#xa4;" horiz-adv-x="1409" 
d="M310 1252c-71.333 -126.667 -68.6689 -262.33 7.99805 -406.997c-102 -218.667 -60.667 -402.334 124 -551.001c23.333 -16.667 49 -33 77 -49l-7 -56l43 42c88.667 -20.667 171.667 -20.334 249 0.999023l48 -43l-10 60c116 53.333 192.667 134.666 230 243.999
c42 128 32.333 244.667 -29 350c68.667 138 73 273 13 405c-81.333 145.333 -205.666 218.333 -372.999 219c-153.333 0 -277.666 -71.667 -372.999 -215zM1014 1230c56.667 -116 56.001 -235.334 -1.99902 -358.001c95.333 -132.667 102 -282.667 20 -450
c-52 -75.333 -115.333 -130.666 -190 -165.999l-7 39c190 103.333 257.333 255.666 202 456.999c-59.333 148 -161.666 232.667 -306.999 254l-48 345l-53 -345c-189.333 -42 -295.333 -153 -318 -333c-8.66699 -180 63 -306 215 -378l-6 -40
c-138.667 74.667 -220.334 180.334 -245.001 317.001c-10.667 116 15 219 77 309c-62 118 -59.333 237.333 8 358c81.333 117.333 189 176 323 176c143.333 0 253.666 -61.667 330.999 -185zM756.998 560.003l109 -29l-95 -66l21 -159l-110 99l-112 -99l21 159l-93 66
l107 29l74 489zM762.998 270.003l33.999 -30c-72.667 -20 -150 -21 -232 -3l34 33c58.667 -13.333 113.334 -13.333 164.001 0zM533.997 43.0029l11 -11h32l11 11v15h-13v-9l-4 -4h-20l-4 4v41l4 4h20l4 -4v-9h13v15l-11 11h-32l-11 -11v-53zM130.997 107.003h12v-31h29v31
h12v-75h-12v31h-29v-31h-12v75zM257.997 32.0029h13v31h10l16 -31h15l-17 31h6l11 11v22l-11 11h-43v-75zM270.997 94.0029h24l4 -4v-10l-4 -4h-24v18zM321.997 107.003h12v-62h38v-13h-50v75zM382.997 108.003h50v-13h-37v-19h29v-12h-29v-19h37v-13h-50v76z
M442.997 43.0029l11 -11h32l11 11v23l-11 10h-26l-4 5v9l4 5h20l4 -5v-6h13v13l-11 11h-32l-11 -11v-23l11 -10h26l4 -5v-9l-4 -5h-20l-4 5v6h-13v-13zM1199 107.003h12v-75h-12v75zM747.997 108.003h18l18 -48l17 48h19l-1 -76h-12v55l-20 -55h-7l-20 55v-55h-12v76z
M917.997 43.0029l11 -11h32l11 11v54l-11 11h-32l-11 -11v-54zM930.997 90.0029l4 5h20l4 -5v-40l-4 -5h-20l-4 5v40zM1006 32.0029h43l11 11v53l-11 11h-43v-75zM1018 94.0029h24l5 -4v-41l-5 -4h-24v49zM1224 43.0029l10 -11h33l11 11v28h-24v-13h11v-8l-5 -5h-19l-5 5v40
l5 5h19l5 -5v-9h13v16l-11 11h-33l-10 -11v-54zM1290 32.0029v76h18l23 -55v55h13v-76h-19l-23 55v-55h-12zM65.9971 43.0029l11 -11h32l11 11v15h-13v-9l-4 -4h-20l-4 4v41l4 4h20l4 -4v-9h13v15l-11 11h-32l-11 -11v-53zM203.997 32.0029l5 17h24l5 -17h13l-22 75h-16
l-22 -75h13zM220.997 89.0029l8 -28h-16zM605.997 32.0029l5 17h24l5 -17h13l-22 75h-16l-22 -75h13zM622.997 89.0029l8 -28h-16zM657.997 43.0029l11 -11h32l11 11v23l-11 10h-26l-4 5v9l4 5h20l4 -5v-6h13v13l-11 11h-32l-11 -11v-23l11 -10h26l4 -5v-9l-4 -5h-20l-4 5v6
h-13v-13zM831.997 107.003h12v-75h-12v75zM854.997 32.0029h13v31h10l16 -31h15l-17 31h6l11 11v22l-11 11h-43v-75zM867.997 94.0029h24l4 -4v-10l-4 -4h-24v18zM1071 108.003h50v-13h-37v-19h29v-12h-29v-19h37v-13h-50v76zM1132 43.0029l11 -11h32l11 11v23l-11 10h-26
l-4 5v9l4 5h20l4 -5v-6h13v13l-11 11h-32l-11 -11v-23l11 -10h26l4 -5v-9l-4 -5h-20l-4 5v6h-13v-13zM723.997 107.003h12v-75h-12v75z" />
    <glyph glyph-name="yen" unicode="&#xa5;" 
d="M779 0v647l449 853h-284l-293 -554l-295 554h-284l449 -850v-650h258zM235 689h832v258h-832v-258zM235 313h832v258h-832v-258z" />
    <glyph glyph-name="brokenbar" unicode="&#xa6;" horiz-adv-x="479" 
d="M111 656h257v-786h-257v786zM111 1629h257v-780h-257v780z" />
    <glyph glyph-name="section" unicode="&#xa7;" horiz-adv-x="1025" 
d="M641 604c23.333 13.333 40.833 28.167 52.5 44.5s17.5 33.833 17.5 52.5c0 22.667 -6.66699 42 -20 58s-41 35 -83 57l-232 120c-22.667 -14 -40 -29.333 -52 -46s-18 -34.667 -18 -54c0 -22.667 8.66699 -42.667 26 -60s55.333 -41.333 114 -72zM165 318.001
l216.001 0.00292969c4.66699 -46 18.334 -80 41.001 -102s54.667 -33 96 -33c38 0 68.5 9.16699 91.5 27.5s34.5 43.166 34.5 74.499c0 26 -8.5 48.5 -25.5 67.5s-50.5 40.5 -100.5 64.5l-209 106c-66.667 33.333 -116.334 71.666 -149.001 114.999s-49 91.666 -49 144.999
c0 52 12.667 97.667 38 137s62.666 72.333 111.999 99c-28.667 26 -50 54.667 -64 86s-21 66 -21 104c0 87.333 30 157.666 90 210.999s140 80 240 80c102 0 182.167 -26.333 240.5 -79s88.5 -125.334 90.5 -218.001h-206c-1.33301 39.333 -13 69.166 -35 89.499
s-53.333 30.5 -94 30.5c-36 0 -63.833 -7.83301 -83.5 -23.5s-29.5 -37.834 -29.5 -66.501c0 -23.333 11.5 -45 34.5 -65s64.5 -44 124.5 -72l147 -69c74.667 -35.333 129.834 -74.666 165.501 -117.999s53.5 -93.333 53.5 -150c0 -53.333 -13.333 -99.666 -40 -138.999
s-64.667 -69.666 -114 -90.999c34 -30 59.5 -63.167 76.5 -99.5s25.5 -75.833 25.5 -118.5c0 -90 -32.167 -164.333 -96.5 -223s-146.833 -88 -247.5 -88c-110.667 -0 -195.834 26.833 -255.501 80.5s-92.167 132.834 -97.5 237.501z" />
    <glyph glyph-name="dieresis" unicode="&#xa8;" horiz-adv-x="780" 
d="M476 1743h193v-193h-193v193zM111 1743h193v-193h-193v193z" />
    <glyph glyph-name="copyright" unicode="&#xa9;" horiz-adv-x="1477" 
d="M408 414c94 -92.667 204.333 -139 331 -139c130 0 241.167 45.667 333.5 137s138.5 204 138.5 338c0 135.333 -43.833 247.166 -131.5 335.499s-195.167 132.5 -322.5 132.5c-130 0 -244.167 -47.167 -342.5 -141.5s-147.5 -204.166 -147.5 -329.499
c0 -129.333 47 -240.333 141 -333zM111 747c0 167.333 65.5 313.668 196.5 439.001s282.833 188 455.5 188c169.333 0 312.333 -58.833 429 -176.5s175 -266.167 175 -445.5c0 -178.667 -61.5 -328.834 -184.5 -450.501s-270.833 -182.5 -443.5 -182.5
c-168.667 0 -315.5 61.833 -440.5 185.5s-187.5 271.167 -187.5 442.5zM477 481.002l106 -106h318l106 106v154h-127v-90l-42 -43h-192l-42 43v397l43 44h191l42 -44v-89h127v153l-106 106h-318l-106 -106v-525z" />
    <glyph glyph-name="ordfeminine" unicode="&#xaa;" horiz-adv-x="697" 
d="M45 750l223 750h161l223 -750h-134l-50 165h-239l-49 -165h-135zM265 1044h167l-84 279z" />
    <glyph glyph-name="guillemotleft" unicode="&#xab;" horiz-adv-x="1116" 
d="M500 445l443 445l139 -138l-307 -307l307 -307l-139 -138zM34 445l443 445l139 -138l-307 -307l307 -307l-139 -138z" />
    <glyph glyph-name="logicalnot" unicode="&#xac;" horiz-adv-x="1155" 
d="M36 938h1080v-466h-199v265h-881v201z" />
    <glyph glyph-name="minus" unicode="&#xad;" 
d="M111 879h1079v-258h-1079v258z" />
    <glyph glyph-name="minus" unicode="&#x2212;" 
d="M111 879h1079v-258h-1079v258z" />
    <glyph glyph-name="registered" unicode="&#xae;" horiz-adv-x="1477" 
d="M607 987h235l42 -43v-93l-42 -43h-235v179zM408 414c94 -92.667 204.333 -139 331 -139c130 0 241.167 45.667 333.5 137s138.5 204 138.5 338c0 135.333 -43.833 247.166 -131.5 335.499s-195.167 132.5 -322.5 132.5c-130 0 -244.167 -47.167 -342.5 -141.5
s-147.5 -204.166 -147.5 -329.499c0 -129.333 47 -240.333 141 -333zM111 747c0 167.333 65.5 313.668 196.5 439.001s282.833 188 455.5 188c169.333 0 312.333 -58.833 429 -176.5s175 -266.167 175 -445.5c0 -178.667 -61.5 -328.834 -184.5 -450.501
s-270.833 -182.5 -443.5 -182.5c-168.667 0 -315.5 61.833 -440.5 185.5s-187.5 271.167 -187.5 442.5zM480 375.002h127v306h165l106 -306h135l-107 306l107 106v221l-107 106h-426v-739z" />
    <glyph glyph-name="macron" unicode="&#xaf;" horiz-adv-x="708" 
d="M111 1758h485v-174h-485v174z" />
    <glyph glyph-name="macron" unicode="&#x2c9;" horiz-adv-x="708" 
d="M111 1758h485v-174h-485v174z" />
    <glyph glyph-name="degree" unicode="&#xb0;" horiz-adv-x="842" 
d="M111 1190c0 82.667 32.332 154.999 96.999 216.999s139.334 93 224.001 93c84 0 154.833 -29.167 212.5 -87.5s86.5 -131.833 86.5 -220.5s-30.5 -163.167 -91.5 -223.5s-133.833 -90.5 -218.5 -90.5c-84 0 -156.667 30.833 -218 92.5s-92 134.834 -92 219.501z
M348.499 1115.5c20.333 -20.333 44.5 -30.5 72.5 -30.5s52.167 10.167 72.5 30.5s30.5 45.166 30.5 74.499s-9.5 53.833 -28.5 73.5s-42.5 29.5 -70.5 29.5c-29.333 0 -54.5 -10.5 -75.5 -31.5s-31.5 -44.833 -31.5 -71.5c0 -29.333 10.167 -54.166 30.5 -74.499z" />
    <glyph glyph-name="plusminus" unicode="&#xb1;" horiz-adv-x="1201" 
d="M111 1049h361v369h256v-369h362v-258h-361v-375h-258v375h-360v258zM111 258h979v-258h-979v258z" />
    <glyph glyph-name="twosuperior" unicode="&#xb2;" horiz-adv-x="762" 
d="M651 879v-129h-540v317l108 107h259l43 44v110l-43 44h-194l-44 -44v-60h-129v124l108 108h324l108 -108v-239l-108 -107h-260l-43 -44v-123h411z" />
    <glyph glyph-name="threesuperior" unicode="&#xb3;" horiz-adv-x="761" 
d="M111 858l107 -108h325l107 108v200l-67 67l67 67v200l-107 108h-325l-107 -108v-124h129v60l43 43h195l43 -43l1 -95l-44 -43h-185v-129h185l43 -43l1 -95l-44 -44h-194l-44 43v60h-129v-124z" />
    <glyph glyph-name="acute" unicode="&#xb4;" horiz-adv-x="597" 
d="M111 1696l303 131l72 -166l-303 -131z" />
    <glyph glyph-name="mu" unicode="&#xb5;" horiz-adv-x="1192" 
d="M111 -218h259l-1 218h437l112 110l113 -110l210 210l-160 157v825h-258v-846l-87 -88h-280l-86 87v847h-259v-1410z" />
    <glyph glyph-name="paragraph" unicode="&#xb6;" horiz-adv-x="1161" 
d="M1050 0h-228v1272h-135l1 -1272h-227l-1 621h-134l-215 215v449l215 215h724v-1500z" />
    <glyph glyph-name="periodcentered" unicode="&#xb7;" horiz-adv-x="480" 
d="M111 879h258v-258h-258v258z" />
    <glyph glyph-name="periodcentered" unicode="&#x2219;" horiz-adv-x="480" 
d="M111 879h258v-258h-258v258z" />
    <glyph glyph-name="cedilla" unicode="&#xb8;" horiz-adv-x="574" 
d="M463 -101l-226 225l-126 -126l100 -99l-98 -98l126 -126z" />
    <glyph glyph-name="onesuperior" unicode="&#xb9;" horiz-adv-x="365" 
d="M54 1500h200v-750h-129v621h-71v129z" />
    <glyph glyph-name="ordmasculine" unicode="&#xba;" horiz-adv-x="762" 
d="M111 858l108 -108h324l108 108v534l-108 108h-324l-108 -108v-534zM240 1327l44 44h194l44 -44v-404l-44 -44h-194l-44 44v404z" />
    <glyph glyph-name="guillemotright" unicode="&#xbb;" horiz-adv-x="1116" 
d="M616 445l-443 445l-139 -138l307 -307l-307 -307l139 -138zM1082 445l-443 445l-139 -138l307 -307l-307 -307l139 -138z" />
    <glyph glyph-name="onequarter" unicode="&#xbc;" horiz-adv-x="796" 
d="M257 1620h200v-750h-129v621h-71v129zM111 683v128h573v-128h-573zM668 64h-65v-184h-128v184h-345v128l345 437h128v-437h65v-128zM475 192v238l-190 -238h190z" />
    <glyph glyph-name="onehalf" unicode="&#xbd;" horiz-adv-x="795" 
d="M258 1620h200v-750h-129v621h-71v129zM111 683v128h573v-128h-573zM665 6v-129h-540v317l108 108h259l43 43v109l-43 44h-194l-44 -44v-60h-129v126l108 107h324l108 -107v-240l-108 -108h-260l-43 -44v-122h411z" />
    <glyph glyph-name="threequarters" unicode="&#xbe;" horiz-adv-x="795" 
d="M111 683v128h573v-128h-573zM669 64h-65v-184h-128v184h-345v128l345 437h128v-437h65v-128zM476 192v238l-190 -238h190zM119 978l107 -107h325l107 107v201l-67 67l67 67v201l-107 107h-325l-107 -107v-126h129v61l43 43h195l43 -43l1 -95l-44 -44h-185v-128h185
l43 -44l1 -94l-44 -44h-194l-44 44v60h-129v-126z" />
    <glyph glyph-name="questiondown" unicode="&#xbf;" 
d="M472 844h-174l-188 -188v-441l215 -215h649l215 215v250h-258v-121l-87 -87l-390 1l-86 86l-1 190l88 87h171l183 183v268h-258v-149zM809 1242h-259v258h259v-258z" />
    <glyph glyph-name="Agrave" unicode="&#xc0;" horiz-adv-x="1305" 
d="M728 1696l-303 131l-72 -166l303 -131zM45 0l447 1500h322l446 -1500h-268l-100 331h-480l-98 -331h-269zM486 589h332l-166 557z" />
    <glyph glyph-name="Aacute" unicode="&#xc1;" horiz-adv-x="1305" 
d="M45 0l447 1500h322l446 -1500h-268l-100 331h-480l-98 -331h-269zM486 589h332l-166 557zM572 1696l303 131l72 -166l-303 -131z" />
    <glyph glyph-name="Acircumflex" unicode="&#xc2;" horiz-adv-x="1305" 
d="M45 0l447 1500h322l446 -1500h-268l-100 331h-480l-98 -331h-269zM486 589h332l-166 557zM922 1641l-116 -136l-151 100l-152 -102l-116 136l268 189z" />
    <glyph glyph-name="Atilde" unicode="&#xc3;" horiz-adv-x="1305" 
d="M45 0l447 1500h322l446 -1500h-268l-100 331h-480l-98 -331h-269zM486 589h332l-166 557zM985 1693l-28.9971 -46c-16.667 -26 -38.834 -51.667 -66.501 -77s-68.834 -38 -123.501 -38c-40.667 0 -93.334 23.667 -158.001 71c-25.333 21.333 -47.333 32 -66 32
c-19.333 -1.33301 -36.333 -7.83301 -51 -19.5s-34.667 -35.834 -60 -72.501l-111 93l22 34c14.667 24.667 38.834 52.5 72.501 83.5s74.167 46.5 121.5 46.5c46.667 0 97 -23 151 -69c23.333 -19.333 43.666 -30.666 60.999 -33.999c18.667 -2.66699 34.667 -1 48 5
s29.333 19.333 48 40l30 38z" />
    <glyph glyph-name="Adieresis" unicode="&#xc4;" horiz-adv-x="1305" 
d="M45 0l447 1500h322l446 -1500h-268l-100 331h-480l-98 -331h-269zM486 589h332l-166 557zM736 1743h193v-193h-193v193zM371 1743h193v-193h-193v193z" />
    <glyph glyph-name="Aring" unicode="&#xc5;" horiz-adv-x="1305" 
d="M45 0l447 1500h322l446 -1500h-268l-100 331h-480l-98 -331h-269zM486 589h332l-166 557zM486 1670c0 43.333 17 81.335 51 114.002s73.333 49 118 49c44 0 81.167 -15.333 111.5 -46s45.5 -69.334 45.5 -116.001s-16 -85.834 -48 -117.501s-70.333 -47.5 -115 -47.5
c-44 0 -82.167 16.167 -114.5 48.5s-48.5 70.833 -48.5 115.5zM611 1631c10.667 -10.667 23.332 -15.999 37.999 -15.999s27.334 5.33301 38.001 16s16 23.667 16 39s-5 28.166 -15 38.499s-22.333 15.5 -37 15.5c-15.333 0 -28.5 -5.5 -39.5 -16.5s-16.5 -23.5 -16.5 -37.5
c0 -15.333 5.33301 -28.333 16 -39z" />
    <glyph glyph-name="AE" unicode="&#xc6;" horiz-adv-x="1829" 
d="M611 1500h1107v-258h-607v-363h444v-258h-444v-363h607v-258h-865l1 381l-388 1l-138 -382h-282zM858 640v602h-68l-230 -602h298z" />
    <glyph glyph-name="Ccedilla" unicode="&#xc7;" 
d="M111 215l215 -215h649l215 215v272h-258v-141l-87 -88h-389l-86 87v810l87 88h388l87 -88v-142h258v272l-215 215h-649l-215 -215v-1070zM881 -101l-226 225l-126 -126l100 -99l-98 -98l126 -126z" />
    <glyph glyph-name="Egrave" unicode="&#xc8;" horiz-adv-x="1221" 
d="M111 1500h999v-258h-741v-363h578v-258h-578v-363h741v-258h-999v1500zM691 1696l-303 131l-72 -166l303 -131z" />
    <glyph glyph-name="Eacute" unicode="&#xc9;" horiz-adv-x="1221" 
d="M111 1500h999v-258h-741v-363h578v-258h-578v-363h741v-258h-999v1500zM537 1696l303 131l72 -166l-303 -131z" />
    <glyph glyph-name="Ecircumflex" unicode="&#xca;" horiz-adv-x="1221" 
d="M111 1500h999v-258h-741v-363h578v-258h-578v-363h741v-258h-999v1500zM893 1641l-116 -136l-151 100l-152 -102l-116 136l268 189z" />
    <glyph glyph-name="Edieresis" unicode="&#xcb;" horiz-adv-x="1221" 
d="M111 1500h999v-258h-741v-363h578v-258h-578v-363h741v-258h-999v1500zM703 1743h193v-193h-193v193zM338 1743h193v-193h-193v193z" />
    <glyph glyph-name="Igrave" unicode="&#xcc;" horiz-adv-x="480" 
d="M111 1500h258v-1500h-258v1500zM323 1696l-303 131l-72 -166l303 -131z" />
    <glyph glyph-name="Iacute" unicode="&#xcd;" horiz-adv-x="480" 
d="M111 1500h258v-1500h-258v1500zM161 1696l303 131l72 -166l-303 -131z" />
    <glyph glyph-name="Icircumflex" unicode="&#xce;" horiz-adv-x="480" 
d="M111 1500h258v-1500h-258v1500zM512 1641l-116 -136l-151 100l-152 -102l-116 136l268 189z" />
    <glyph glyph-name="Idieresis" unicode="&#xcf;" horiz-adv-x="480" 
d="M111 1500h258v-1500h-258v1500zM328 1743h193v-193h-193v193zM-37 1743h193v-193h-193v193z" />
    <glyph glyph-name="Eth" unicode="&#xd0;" 
d="M131 0h844l215 215v1070l-215 215h-844v-1500zM389 1242h456l87 -87v-810l-87 -87h-456v984zM31 621h612v258h-612v-258z" />
    <glyph glyph-name="Ntilde" unicode="&#xd1;" 
d="M111 0v1500h377l444 -1094v1094h258v-1500h-375l-446 1092v-1092h-258zM988 1681l-27.001 -39.998c-19.333 -28.667 -43 -54.834 -71 -78.501s-65.333 -35.5 -112 -35.5c-40.667 0 -94 22 -160 66c-27.333 20 -52.666 30 -75.999 30
c-26 -0.666992 -45.5 -6.33398 -58.5 -17.001s-30.5 -33.667 -52.5 -69l-111 109l22 32c14.667 23.333 38.834 49.5 72.501 78.5s74.167 43.5 121.5 43.5c46.667 0 97 -21.667 151 -65c23.333 -18 43.666 -28.333 60.999 -31c18.667 -2.66699 34.667 -1.16699 48 4.5
s29.333 18.167 48 37.5l30 41z" />
    <glyph glyph-name="Ograve" unicode="&#xd2;" 
d="M111 215l215 -215h649l215 215v1070l-215 215h-649l-215 -215v-1070zM369 1155l87 87h389l87 -87v-810l-87 -87h-389l-87 87v810zM731 1696l-303 131l-72 -166l303 -131z" />
    <glyph glyph-name="Oacute" unicode="&#xd3;" 
d="M111 215l215 -215h649l215 215v1070l-215 215h-649l-215 -215v-1070zM369 1155l87 87h389l87 -87v-810l-87 -87h-389l-87 87v810zM572 1696l303 131l72 -166l-303 -131z" />
    <glyph glyph-name="Ocircumflex" unicode="&#xd4;" 
d="M111 215l215 -215h649l215 215v1070l-215 215h-649l-215 -215v-1070zM369 1155l87 87h389l87 -87v-810l-87 -87h-389l-87 87v810zM922 1641l-116 -136l-151 100l-152 -102l-116 136l268 189z" />
    <glyph glyph-name="Otilde" unicode="&#xd5;" 
d="M111 215l215 -215h649l215 215v1070l-215 215h-649l-215 -215v-1070zM369 1155l87 87h389l87 -87v-810l-87 -87h-389l-87 87v810zM988 1681l-27.001 -39.998c-19.333 -28.667 -43 -54.834 -71 -78.501s-65.333 -35.5 -112 -35.5c-40.667 0 -94 22 -160 66
c-27.333 20 -52.666 30 -75.999 30c-26 -0.666992 -45.5 -6.33398 -58.5 -17.001s-30.5 -33.667 -52.5 -69l-111 109l22 32c14.667 23.333 38.834 49.5 72.501 78.5s74.167 43.5 121.5 43.5c46.667 0 97 -21.667 151 -65c23.333 -18 43.666 -28.333 60.999 -31
c18.667 -2.66699 34.667 -1.16699 48 4.5s29.333 18.167 48 37.5l30 41z" />
    <glyph glyph-name="Odieresis" unicode="&#xd6;" 
d="M111 215l215 -215h649l215 215v1070l-215 215h-649l-215 -215v-1070zM369 1155l87 87h389l87 -87v-810l-87 -87h-389l-87 87v810zM735 1743h193v-193h-193v193zM370 1743h193v-193h-193v193z" />
    <glyph glyph-name="multiply" unicode="&#xd7;" horiz-adv-x="1211" 
d="M117 445l305 305l-311 311l181 181l311 -311l306 306l183 -183l-306 -305l315 -315l-182 -182l-315 315l-305 -305z" />
    <glyph glyph-name="Oslash" unicode="&#xd8;" 
d="M111 215l215 -215h649l215 215v1070l-215 215h-649l-215 -215v-1070zM369 1155l87 87h389l87 -87v-810l-87 -87h-389l-87 87v810zM1285 1190l-182 182l-1074 -1075l182 -182z" />
    <glyph glyph-name="Ugrave" unicode="&#xd9;" 
d="M111 215l215 -215h649l215 215v1285h-258l1 -1154l-88 -88h-389l-86 87v1155h-259v-1285zM731 1696l-303 131l-72 -166l303 -131z" />
    <glyph glyph-name="Uacute" unicode="&#xda;" 
d="M111 215l215 -215h649l215 215v1285h-258l1 -1154l-88 -88h-389l-86 87v1155h-259v-1285zM576 1696l303 131l72 -166l-303 -131z" />
    <glyph glyph-name="Ucircumflex" unicode="&#xdb;" 
d="M111 215l215 -215h649l215 215v1285h-258l1 -1154l-88 -88h-389l-86 87v1155h-259v-1285zM922 1641l-116 -136l-151 100l-152 -102l-116 136l268 189z" />
    <glyph glyph-name="Udieresis" unicode="&#xdc;" 
d="M111 215l215 -215h649l215 215v1285h-258l1 -1154l-88 -88h-389l-86 87v1155h-259v-1285zM735 1743h193v-193h-193v193zM370 1743h193v-193h-193v193z" />
    <glyph glyph-name="Yacute" unicode="&#xdd;" 
d="M779 0v647l449 853h-284l-293 -554l-295 554h-284l449 -850v-650h258zM572 1696l303 131l72 -166l-303 -131z" />
    <glyph glyph-name="Thorn" unicode="&#xde;" 
d="M111 0h258v195h606l215 215v678l-215 215h-606v197h-258v-1500zM369 1045h476l87 -87v-418l-87 -87h-476v592z" />
    <glyph glyph-name="germandbls" unicode="&#xdf;" horiz-adv-x="2601" 
d="M1411 215l215 -215h649l215 215v449l-215 215h-519l-86 87v189l87 88h388l87 -88v-120h258v250l-215 215h-649l-215 -215v-449l215 -215h520l87 -88v-187l-88 -88h-389l-87 87v120h-258v-250zM111 215l215 -215h649l215 215v449l-215 215h-519l-86 87v189l87 88h388
l87 -88v-120h258v250l-215 215h-649l-215 -215v-449l215 -215h520l87 -88v-187l-88 -88h-389l-87 87v120h-258v-250z" />
    <glyph glyph-name="agrave" unicode="&#xe0;" horiz-adv-x="1305" 
d="M728 1696l-303 131l-72 -166l303 -131zM45 0l447 1500h322l446 -1500h-268l-100 331h-480l-98 -331h-269zM486 589h332l-166 557z" />
    <glyph glyph-name="aacute" unicode="&#xe1;" horiz-adv-x="1305" 
d="M45 0l447 1500h322l446 -1500h-268l-100 331h-480l-98 -331h-269zM486 589h332l-166 557zM572 1696l303 131l72 -166l-303 -131z" />
    <glyph glyph-name="acircumflex" unicode="&#xe2;" horiz-adv-x="1305" 
d="M45 0l447 1500h322l446 -1500h-268l-100 331h-480l-98 -331h-269zM486 589h332l-166 557zM922 1641l-116 -136l-151 100l-152 -102l-116 136l268 189z" />
    <glyph glyph-name="atilde" unicode="&#xe3;" horiz-adv-x="1305" 
d="M45 0l447 1500h322l446 -1500h-268l-100 331h-480l-98 -331h-269zM486 589h332l-166 557zM988 1681l-27.001 -39.998c-19.333 -28.667 -43 -54.834 -71 -78.501s-65.333 -35.5 -112 -35.5c-40.667 0 -94 22 -160 66c-27.333 20 -52.666 30 -75.999 30
c-26 -0.666992 -45.5 -6.33398 -58.5 -17.001s-30.5 -33.667 -52.5 -69l-111 109l22 32c14.667 23.333 38.834 49.5 72.501 78.5s74.167 43.5 121.5 43.5c46.667 0 97 -21.667 151 -65c23.333 -18 43.666 -28.333 60.999 -31c18.667 -2.66699 34.667 -1.16699 48 4.5
s29.333 18.167 48 37.5l30 41z" />
    <glyph glyph-name="adieresis" unicode="&#xe4;" horiz-adv-x="1305" 
d="M45 0l447 1500h322l446 -1500h-268l-100 331h-480l-98 -331h-269zM486 589h332l-166 557zM736 1743h193v-193h-193v193zM371 1743h193v-193h-193v193z" />
    <glyph glyph-name="aring" unicode="&#xe5;" horiz-adv-x="1305" 
d="M45 0l447 1500h322l446 -1500h-268l-100 331h-480l-98 -331h-269zM486 589h332l-166 557zM486 1670c0 43.333 17 81.335 51 114.002s73.333 49 118 49c44 0 81.167 -15.333 111.5 -46s45.5 -69.334 45.5 -116.001s-16 -85.834 -48 -117.501s-70.333 -47.5 -115 -47.5
c-44 0 -82.167 16.167 -114.5 48.5s-48.5 70.833 -48.5 115.5zM611 1631c10.667 -10.667 23.332 -15.999 37.999 -15.999s27.334 5.33301 38.001 16s16 23.667 16 39s-5 28.166 -15 38.499s-22.333 15.5 -37 15.5c-15.333 0 -28.5 -5.5 -39.5 -16.5s-16.5 -23.5 -16.5 -37.5
c0 -15.333 5.33301 -28.333 16 -39z" />
    <glyph glyph-name="ae" unicode="&#xe6;" horiz-adv-x="1829" 
d="M611 1500h1107v-258h-607v-363h444v-258h-444v-363h607v-258h-865l1 381l-388 1l-138 -382h-282zM858 640v602h-68l-230 -602h298z" />
    <glyph glyph-name="ccedilla" unicode="&#xe7;" 
d="M111 215l215 -215h649l215 215v272h-258v-141l-87 -88h-389l-86 87v810l87 88h388l87 -88v-141h258v271l-215 215h-649l-215 -215v-1070zM881 -101l-226 225l-126 -126l100 -99l-98 -98l126 -126z" />
    <glyph glyph-name="egrave" unicode="&#xe8;" horiz-adv-x="1221" 
d="M111 1500h999v-258h-741v-363h578v-258h-578v-363h741v-258h-999v1500zM691 1696l-303 131l-72 -166l303 -131z" />
    <glyph glyph-name="eacute" unicode="&#xe9;" horiz-adv-x="1221" 
d="M111 1500h999v-258h-741v-363h578v-258h-578v-363h741v-258h-999v1500zM537 1696l303 131l72 -166l-303 -131z" />
    <glyph glyph-name="ecircumflex" unicode="&#xea;" horiz-adv-x="1221" 
d="M111 1500h999v-258h-741v-363h578v-258h-578v-363h741v-258h-999v1500zM893 1641l-116 -136l-151 100l-152 -102l-116 136l268 189z" />
    <glyph glyph-name="edieresis" unicode="&#xeb;" horiz-adv-x="1221" 
d="M111 1500h999v-258h-741v-363h578v-258h-578v-363h741v-258h-999v1500zM703 1743h193v-193h-193v193zM338 1743h193v-193h-193v193z" />
    <glyph glyph-name="igrave" unicode="&#xec;" horiz-adv-x="480" 
d="M111 1500h258v-1500h-258v1500zM323 1696l-303 131l-72 -166l303 -131z" />
    <glyph glyph-name="iacute" unicode="&#xed;" horiz-adv-x="480" 
d="M111 1500h258v-1500h-258v1500zM161 1696l303 131l72 -166l-303 -131z" />
    <glyph glyph-name="icircumflex" unicode="&#xee;" horiz-adv-x="480" 
d="M111 1500h258v-1500h-258v1500zM512 1641l-116 -136l-151 100l-152 -102l-116 136l268 189z" />
    <glyph glyph-name="idieresis" unicode="&#xef;" horiz-adv-x="480" 
d="M111 1500h258v-1500h-258v1500zM328 1743h193v-193h-193v193zM-37 1743h193v-193h-193v193z" />
    <glyph glyph-name="eth" unicode="&#xf0;" 
d="M131 0h844l215 215v1070l-215 215h-844v-1500zM389 1242h456l87 -87v-810l-87 -87h-456v984zM31 621h612v258h-612v-258z" />
    <glyph glyph-name="ntilde" unicode="&#xf1;" 
d="M111 0v1500h377l444 -1094v1094h258v-1500h-375l-446 1092v-1092h-258zM988 1681l-27.001 -39.998c-19.333 -28.667 -43 -54.834 -71 -78.501s-65.333 -35.5 -112 -35.5c-40.667 0 -94 22 -160 66c-27.333 20 -52.666 30 -75.999 30
c-26 -0.666992 -45.5 -6.33398 -58.5 -17.001s-30.5 -33.667 -52.5 -69l-111 109l22 32c14.667 23.333 38.834 49.5 72.501 78.5s74.167 43.5 121.5 43.5c46.667 0 97 -21.667 151 -65c23.333 -18 43.666 -28.333 60.999 -31c18.667 -2.66699 34.667 -1.16699 48 4.5
s29.333 18.167 48 37.5l30 41z" />
    <glyph glyph-name="ograve" unicode="&#xf2;" 
d="M111 215l215 -215h649l215 215v1070l-215 215h-649l-215 -215v-1070zM369 1155l87 87h389l87 -87v-810l-87 -87h-389l-87 87v810zM731 1696l-303 131l-72 -166l303 -131z" />
    <glyph glyph-name="oacute" unicode="&#xf3;" 
d="M111 215l215 -215h649l215 215v1070l-215 215h-649l-215 -215v-1070zM369 1155l87 87h389l87 -87v-810l-87 -87h-389l-87 87v810zM572 1696l303 131l72 -166l-303 -131z" />
    <glyph glyph-name="ocircumflex" unicode="&#xf4;" 
d="M111 215l215 -215h649l215 215v1070l-215 215h-649l-215 -215v-1070zM369 1155l87 87h389l87 -87v-810l-87 -87h-389l-87 87v810zM922 1641l-116 -136l-151 100l-152 -102l-116 136l268 189z" />
    <glyph glyph-name="otilde" unicode="&#xf5;" 
d="M111 215l215 -215h649l215 215v1070l-215 215h-649l-215 -215v-1070zM369 1155l87 87h389l87 -87v-810l-87 -87h-389l-87 87v810zM988 1681l-27.001 -39.998c-19.333 -28.667 -43 -54.834 -71 -78.501s-65.333 -35.5 -112 -35.5c-40.667 0 -94 22 -160 66
c-27.333 20 -52.666 30 -75.999 30c-26 -0.666992 -45.5 -6.33398 -58.5 -17.001s-30.5 -33.667 -52.5 -69l-111 109l22 32c14.667 23.333 38.834 49.5 72.501 78.5s74.167 43.5 121.5 43.5c46.667 0 97 -21.667 151 -65c23.333 -18 43.666 -28.333 60.999 -31
c18.667 -2.66699 34.667 -1.16699 48 4.5s29.333 18.167 48 37.5l30 41z" />
    <glyph glyph-name="odieresis" unicode="&#xf6;" 
d="M111 215l215 -215h649l215 215v1070l-215 215h-649l-215 -215v-1070zM369 1155l87 87h389l87 -87v-810l-87 -87h-389l-87 87v810zM735 1743h193v-193h-193v193zM370 1743h193v-193h-193v193z" />
    <glyph glyph-name="divide" unicode="&#xf7;" 
d="M111 879h1079v-258h-1079v258zM525 1319h258v-258h-258v258zM525 434h258v-258h-258v258z" />
    <glyph glyph-name="oslash" unicode="&#xf8;" 
d="M111 215l215 -215h649l215 215v1070l-215 215h-649l-215 -215v-1070zM369 1155l87 87h389l87 -87v-810l-87 -87h-389l-87 87v810zM1285 1190l-182 182l-1074 -1075l182 -182z" />
    <glyph glyph-name="ugrave" unicode="&#xf9;" 
d="M111 215l215 -215h649l215 215v1285h-258l1 -1154l-88 -88h-389l-86 87v1155h-259v-1285zM731 1696l-303 131l-72 -166l303 -131z" />
    <glyph glyph-name="uacute" unicode="&#xfa;" 
d="M111 215l215 -215h649l215 215v1285h-258l1 -1154l-88 -88h-389l-86 87v1155h-259v-1285zM576 1696l303 131l72 -166l-303 -131z" />
    <glyph glyph-name="ucircumflex" unicode="&#xfb;" 
d="M111 215l215 -215h649l215 215v1285h-258l1 -1154l-88 -88h-389l-86 87v1155h-259v-1285zM922 1641l-116 -136l-151 100l-152 -102l-116 136l268 189z" />
    <glyph glyph-name="udieresis" unicode="&#xfc;" 
d="M111 215l215 -215h649l215 215v1285h-258l1 -1154l-88 -88h-389l-86 87v1155h-259v-1285zM735 1743h193v-193h-193v193zM370 1743h193v-193h-193v193z" />
    <glyph glyph-name="yacute" unicode="&#xfd;" 
d="M779 0v647l449 853h-284l-293 -554l-295 554h-284l449 -850v-650h258zM572 1696l303 131l72 -166l-303 -131z" />
    <glyph glyph-name="thorn" unicode="&#xfe;" 
d="M111 0h258v195h606l215 215v678l-215 215h-606v197h-258v-1500zM369 1045h476l87 -87v-418l-87 -87h-476v592z" />
    <glyph glyph-name="ydieresis" unicode="&#xff;" 
d="M779 0v647l449 853h-284l-293 -554l-295 554h-284l449 -850v-650h258zM735 1743h193v-193h-193v193zM370 1743h193v-193h-193v193z" />
    <glyph glyph-name="dotlessi" unicode="&#x131;" horiz-adv-x="480" 
d="M111 1500h258v-1500h-258v1500z" />
    <glyph glyph-name="Lslash" unicode="&#x141;" horiz-adv-x="1221" 
d="M132 1500h258v-1242h721v-258h-979v1500zM38 475l-135 219l684 420l134 -220z" />
    <glyph glyph-name="lslash" unicode="&#x142;" horiz-adv-x="1221" 
d="M132 1500h258v-1242h721v-258h-979v1500zM38 475l-135 219l684 420l134 -220z" />
    <glyph glyph-name="OE" unicode="&#x152;" horiz-adv-x="1829" 
d="M326 1500h1392v-258h-607v-363h444v-258h-444v-363h607v-258h-1392l-215 215l1 1071zM369 345l87 -87h311l87 87v810l-87 87h-311l-87 -87v-810z" />
    <glyph glyph-name="oe" unicode="&#x153;" horiz-adv-x="1829" 
d="M326 1500h1392v-258h-607v-363h444v-258h-444v-363h607v-258h-1392l-215 215l1 1071zM369 345l87 -87h311l87 87v810l-87 87h-311l-87 -87v-810z" />
    <glyph glyph-name="Scaron" unicode="&#x160;" 
d="M111 215l215 -215h649l215 215v449l-215 215h-519l-86 87v189l87 88h388l87 -88v-120h258v250l-215 215h-649l-215 -215v-449l215 -215h520l87 -88v-187l-88 -88h-389l-87 87v120h-258v-250zM381 1689l116 136l151 -100l152 102l116 -136l-268 -189z" />
    <glyph glyph-name="scaron" unicode="&#x161;" 
d="M111 215l215 -215h649l215 215v449l-215 215h-519l-86 87v189l87 88h388l87 -88v-120h258v250l-215 215h-649l-215 -215v-449l215 -215h520l87 -88v-187l-88 -88h-389l-87 87v120h-258v-250zM381 1689l116 136l151 -100l152 102l116 -136l-268 -189z" />
    <glyph glyph-name="Ydieresis" unicode="&#x178;" 
d="M779 0v647l449 853h-284l-293 -554l-295 554h-284l449 -850v-650h258zM735 1743h193v-193h-193v193zM370 1743h193v-193h-193v193z" />
    <glyph glyph-name="Zcaron" unicode="&#x17d;" horiz-adv-x="1242" 
d="M111 1500h1020v-258l-709 -984h709v-258h-1020v251l709 991h-709v258zM381 1689l116 136l151 -100l152 102l116 -136l-268 -189z" />
    <glyph glyph-name="zcaron" unicode="&#x17e;" horiz-adv-x="1242" 
d="M111 1500h1020v-258l-709 -984h709v-258h-1020v251l709 991h-709v258zM381 1689l116 136l151 -100l152 102l116 -136l-268 -189z" />
    <glyph glyph-name="florin" unicode="&#x192;" horiz-adv-x="891" 
d="M111 0h255l215 215l1 526h198v258h-199v156l88 88h111v257h-242l-215 -215v-285h-162v-259l162 1v-396l-87 -89h-125v-257z" />
    <glyph glyph-name="circumflex" unicode="&#x2c6;" horiz-adv-x="656" 
d="M545 1612l-96 -96l-121 120l-122 -122l-96 96l218 219z" />
    <glyph glyph-name="caron" unicode="&#x2c7;" horiz-adv-x="757" 
d="M111 1689l116 136l151 -100l152 102l116 -136l-268 -189z" />
    <glyph glyph-name="breve" unicode="&#x2d8;" horiz-adv-x="723" 
d="M120 1806h147.001c-3.33301 -46.667 4.66699 -77.5 24 -92.5s45.666 -22.5 78.999 -22.5c32.667 0 58.667 7.33301 78 22s27.333 45.667 24 93h147c6.66699 -95.333 -15.333 -165.5 -66 -210.5s-111.667 -67.5 -183 -67.5c-70 0 -130.833 22.667 -182.5 68
s-74.167 115.333 -67.5 210z" />
    <glyph glyph-name="dotaccent" unicode="&#x2d9;" horiz-adv-x="480" 
d="M111 1799h258v-258h-258v258z" />
    <glyph glyph-name="ring" unicode="&#x2da;" horiz-adv-x="548" 
d="M111 1670c0 43.333 17 81.335 51 114.002s73.333 49 118 49c44 0 81.167 -15.333 111.5 -46s45.5 -69.334 45.5 -116.001s-16 -85.834 -48 -117.501s-70.333 -47.5 -115 -47.5c-44 0 -82.167 16.167 -114.5 48.5s-48.5 70.833 -48.5 115.5zM236 1631
c10.667 -10.667 23.332 -15.999 37.999 -15.999s27.334 5.33301 38.001 16s16 23.667 16 39s-5 28.166 -15 38.499s-22.333 15.5 -37 15.5c-15.333 0 -28.5 -5.5 -39.5 -16.5s-16.5 -23.5 -16.5 -37.5c0 -15.333 5.33301 -28.333 16 -39z" />
    <glyph glyph-name="ogonek" unicode="&#x2db;" horiz-adv-x="601" 
d="M111 81h188v-210h191v-198h-379v408z" />
    <glyph glyph-name="tilde" unicode="&#x2dc;" horiz-adv-x="890" 
d="M779 1681l-27.001 -39.998c-19.333 -28.667 -43 -54.834 -71 -78.501s-65.333 -35.5 -112 -35.5c-40.667 0 -94 22 -160 66c-27.333 20 -52.666 30 -75.999 30c-26 -0.666992 -45.5 -6.33398 -58.5 -17.001s-30.5 -33.667 -52.5 -69l-111 109l22 32
c14.667 23.333 38.834 49.5 72.501 78.5s74.167 43.5 121.5 43.5c46.667 0 97 -21.667 151 -65c23.333 -18 43.666 -28.333 60.999 -31c18.667 -2.66699 34.667 -1.16699 48 4.5s29.333 18.167 48 37.5l30 41z" />
    <glyph glyph-name="hungarumlaut" unicode="&#x2dd;" horiz-adv-x="682" 
d="M319 1615l114 208l138 -104l-152 -169zM111 1615l114 208l138 -104l-152 -169z" />
    <glyph glyph-name="Alpha" unicode="&#x391;" horiz-adv-x="1305" 
d="M45 0l447 1500h322l446 -1500h-268l-100 331h-480l-98 -331h-269zM486 589h332l-166 557z" />
    <glyph glyph-name="Beta" unicode="&#x392;" 
d="M111 0h864l215 215v401l-134 134l134 134v401l-215 215h-864v-1500zM369 1242h476l87 -87v-189l-87 -87h-476v363zM369 621h476l87 -87v-189l-87 -87h-476v363z" />
    <glyph glyph-name="Gamma" unicode="&#x393;" horiz-adv-x="1221" 
d="M111 0h258v1242h741v258h-999v-1500z" />
    <glyph glyph-name="glyph312" unicode="&#x394;" horiz-adv-x="1305" 
d="M390 257h524l-262 889zM45 0l447 1500h322l446 -1500h-1215z" />
    <glyph glyph-name="Epsilon" unicode="&#x395;" horiz-adv-x="1221" 
d="M111 1500h999v-258h-741v-363h578v-258h-578v-363h741v-258h-999v1500z" />
    <glyph glyph-name="Zeta" unicode="&#x396;" horiz-adv-x="1242" 
d="M111 1500h1020v-258l-709 -984h709v-258h-1020v251l709 991h-709v258z" />
    <glyph glyph-name="Eta" unicode="&#x397;" 
d="M111 1500h258v-621h563v621h258v-1500h-258v621h-563v-621h-258v1500z" />
    <glyph glyph-name="Theta" unicode="&#x398;" 
d="M111 215l215 -215h649l215 215v1070l-215 215h-649l-215 -215v-1070zM369 1155l87 87h389l87 -87v-810l-87 -87h-389l-87 87v810zM450 879h401v-258h-401v258z" />
    <glyph glyph-name="Iota" unicode="&#x399;" horiz-adv-x="480" 
d="M111 1500h258v-1500h-258v1500z" />
    <glyph glyph-name="Kappa" unicode="&#x39a;" 
d="M1240 0h-293l-485 666l-93 -99v-567h-257v1500h257v-582l551 582h320l-594 -635z" />
    <glyph glyph-name="Lambda" unicode="&#x39b;" horiz-adv-x="1303" 
d="M1259 0l-447 1500h-322l-446 -1500h268l340 1146l338 -1146h269z" />
    <glyph glyph-name="Mu" unicode="&#x39c;" horiz-adv-x="1660" 
d="M111 1500h369l350 -958l350 959h370l-1 -1501h-258v1089l-389 -1089h-143l-390 1088v-1088h-258v1500z" />
    <glyph glyph-name="Nu" unicode="&#x39d;" 
d="M111 0v1500h377l444 -1094v1094h258v-1500h-375l-446 1092v-1092h-258z" />
    <glyph glyph-name="Xi" unicode="&#x39e;" horiz-adv-x="1284" 
d="M111 258h1079v-258h-1079v258zM111 1500h1079v-258h-1079v258zM235 879h831v-258h-831v258z" />
    <glyph glyph-name="Omicron" unicode="&#x39f;" 
d="M111 215l215 -215h649l215 215v1070l-215 215h-649l-215 -215v-1070zM369 1155l87 87h389l87 -87v-810l-87 -87h-389l-87 87v810z" />
    <glyph glyph-name="Pi" unicode="&#x3a0;" 
d="M111 1500h1079v-1500h-258v1242h-563v-1242h-258v1500z" />
    <glyph glyph-name="Rho" unicode="&#x3a1;" 
d="M111 0h258v621h606l215 215v449l-215 215h-864v-1500zM369 1242h476l87 -87v-189l-87 -87h-476v363z" />
    <glyph glyph-name="Sigma" unicode="&#x3a3;" horiz-adv-x="1222" 
d="M112 0v299l448 451l-449 450v300h1000v-259h-674l433 -419v-143l-432 -421h673v-258h-999z" />
    <glyph glyph-name="Tau" unicode="&#x3a4;" horiz-adv-x="1221" 
d="M111 1500h999v-258h-371v-1242h-258v1242h-370v258z" />
    <glyph glyph-name="Upsilon" unicode="&#x3a5;" 
d="M779 0v647l449 853h-284l-293 -554l-295 554h-284l449 -850v-650h258z" />
    <glyph glyph-name="Phi" unicode="&#x3a6;" horiz-adv-x="1402" 
d="M111 341l215 -215h750l215 215v818l-215 215h-750l-215 -215v-818zM369 1029l87 87h490l87 -87v-558l-87 -87h-490l-87 87v558zM572 0h258v1500h-258v-1500z" />
    <glyph glyph-name="Chi" unicode="&#x3a7;" 
d="M936 0h292l-431 750l430 750h-294l-283 -494l-285 494h-294l432 -750l-432 -750h291l288 498z" />
    <glyph glyph-name="Psi" unicode="&#x3a8;" horiz-adv-x="1402" 
d="M572 0h258v1500h-258v-1500zM111 341l215 -215h750l215 215v1033h-258l1 -902l-88 -88h-490l-86 87v903h-259v-1033z" />
    <glyph glyph-name="glyph332" unicode="&#x3a9;" 
d="M1190 1285l-215 215h-649l-215 -215l1 -815l213 -213h-213v-257h444v384l-188 186v584l88 88h389l86 -87v-587l-186 -185l1 -383h444v258l-213 -1l213 214v814z" />
    <glyph glyph-name="alpha" unicode="&#x3b1;" horiz-adv-x="1305" 
d="M45 0l447 1500h322l446 -1500h-268l-100 331h-480l-98 -331h-269zM486 589h332l-166 557z" />
    <glyph glyph-name="beta" unicode="&#x3b2;" 
d="M111 0h864l215 215v401l-134 134l134 134v401l-215 215h-864v-1500zM369 1242h476l87 -87v-189l-87 -87h-476v363zM369 621h476l87 -87v-189l-87 -87h-476v363z" />
    <glyph glyph-name="gamma" unicode="&#x3b3;" horiz-adv-x="1221" 
d="M111 0h258v1242h741v258h-999v-1500z" />
    <glyph glyph-name="delta" unicode="&#x3b4;" horiz-adv-x="1305" 
d="M390 257h524l-262 889zM45 0l447 1500h322l446 -1500h-1215z" />
    <glyph glyph-name="epsilon" unicode="&#x3b5;" horiz-adv-x="1221" 
d="M111 1500h999v-258h-741v-363h578v-258h-578v-363h741v-258h-999v1500z" />
    <glyph glyph-name="zeta" unicode="&#x3b6;" horiz-adv-x="1242" 
d="M111 1500h1020v-258l-709 -984h709v-258h-1020v251l709 991h-709v258z" />
    <glyph glyph-name="eta" unicode="&#x3b7;" 
d="M111 1500h258v-621h563v621h258v-1500h-258v621h-563v-621h-258v1500z" />
    <glyph glyph-name="theta" unicode="&#x3b8;" 
d="M111 215l215 -215h649l215 215v1070l-215 215h-649l-215 -215v-1070zM369 1155l87 87h389l87 -87v-810l-87 -87h-389l-87 87v810zM450 879h401v-258h-401v258z" />
    <glyph glyph-name="iota" unicode="&#x3b9;" horiz-adv-x="480" 
d="M111 1500h258v-1500h-258v1500z" />
    <glyph glyph-name="kappa" unicode="&#x3ba;" 
d="M1240 0h-293l-485 666l-93 -99v-567h-257v1500h257v-582l551 582h320l-594 -635z" />
    <glyph glyph-name="lambda" unicode="&#x3bb;" horiz-adv-x="1303" 
d="M1259 0l-447 1500h-322l-446 -1500h268l340 1146l338 -1146h269z" />
    <glyph glyph-name="glyph344" unicode="&#x3bc;" horiz-adv-x="1660" 
d="M111 1500h369l350 -958l350 959h370l-1 -1501h-258v1089l-389 -1089h-143l-390 1088v-1088h-258v1500z" />
    <glyph glyph-name="nu" unicode="&#x3bd;" 
d="M111 0v1500h377l444 -1094v1094h258v-1500h-375l-446 1092v-1092h-258z" />
    <glyph glyph-name="xi" unicode="&#x3be;" horiz-adv-x="1284" 
d="M111 258h1079v-258h-1079v258zM111 1500h1079v-258h-1079v258zM235 879h831v-258h-831v258z" />
    <glyph glyph-name="omicron" unicode="&#x3bf;" 
d="M111 215l215 -215h649l215 215v1070l-215 215h-649l-215 -215v-1070zM369 1155l87 87h389l87 -87v-810l-87 -87h-389l-87 87v810z" />
    <glyph glyph-name="glyph348" unicode="&#x3c0;" 
d="M111 1500h1079v-1500h-258v1242h-563v-1242h-258v1500z" />
    <glyph glyph-name="rho" unicode="&#x3c1;" 
d="M111 0h258v621h606l215 215v449l-215 215h-864v-1500zM369 1242h476l87 -87v-189l-87 -87h-476v363z" />
    <glyph glyph-name="sigma1" unicode="&#x3c2;" horiz-adv-x="1222" 
d="M112 0v299l448 451l-449 450v300h1000v-259h-674l433 -419v-143l-432 -421h673v-258h-999z" />
    <glyph glyph-name="sigma" unicode="&#x3c3;" horiz-adv-x="1222" 
d="M112 0v299l448 451l-449 450v300h1000v-259h-674l433 -419v-143l-432 -421h673v-258h-999z" />
    <glyph glyph-name="tau" unicode="&#x3c4;" horiz-adv-x="1221" 
d="M111 1500h999v-258h-371v-1242h-258v1242h-370v258z" />
    <glyph glyph-name="upsilon" unicode="&#x3c5;" 
d="M779 0v647l449 853h-284l-293 -554l-295 554h-284l449 -850v-650h258z" />
    <glyph glyph-name="phi" unicode="&#x3c6;" horiz-adv-x="1402" 
d="M111 341l215 -215h750l215 215v818l-215 215h-750l-215 -215v-818zM369 1029l87 87h490l87 -87v-558l-87 -87h-490l-87 87v558zM572 0h258v1500h-258v-1500z" />
    <glyph glyph-name="chi" unicode="&#x3c7;" 
d="M936 0h292l-431 750l430 750h-294l-283 -494l-285 494h-294l432 -750l-432 -750h291l288 498z" />
    <glyph glyph-name="psi" unicode="&#x3c8;" horiz-adv-x="1402" 
d="M572 0h258v1500h-258v-1500zM111 341l215 -215h750l215 215v1033h-258l1 -902l-88 -88h-490l-86 87v903h-259v-1033z" />
    <glyph glyph-name="omega" unicode="&#x3c9;" 
d="M1190 1285l-215 215h-649l-215 -215l1 -815l213 -213h-213v-257h444v384l-188 186v584l88 88h389l86 -87v-587l-186 -185l1 -383h444v258l-213 -1l213 214v814z" />
    <glyph glyph-name="$0410" unicode="&#x410;" horiz-adv-x="1305" 
d="M45 0l447 1500h322l446 -1500h-268l-100 331h-480l-98 -331h-269zM486 589h332l-166 557z" />
    <glyph glyph-name="afii10018" unicode="&#x411;" 
d="M111 1500h954l1 -258h-697v-363h606l215 -215v-449l-215 -215h-864v1500zM369 258h476l87 87v189l-87 87h-476v-363z" />
    <glyph glyph-name="afii10019" unicode="&#x412;" 
d="M111 0h864l215 215v401l-134 134l134 134v401l-215 215h-864v-1500zM369 1242h476l87 -87v-189l-87 -87h-476v363zM369 621h476l87 -87v-189l-87 -87h-476v363z" />
    <glyph glyph-name="afii10020" unicode="&#x413;" horiz-adv-x="1221" 
d="M111 0h258v1242h741v258h-999v-1500z" />
    <glyph glyph-name="afii10021" unicode="&#x414;" horiz-adv-x="1431" 
d="M111 -165h258v165h693v-165h258v423h-103v1242h-785l-208 -1242h-113v-423zM658 1242h301v-984h-474z" />
    <glyph glyph-name="afii10022" unicode="&#x415;" horiz-adv-x="1221" 
d="M111 1500h999v-258h-741v-363h578v-258h-578v-363h741v-258h-999v1500z" />
    <glyph glyph-name="afii10024" unicode="&#x416;" horiz-adv-x="2171" 
d="M2110 0h-293l-485 666l-93 -99v-567h-257l1 568l-94 99l-485 -667l-293 -1l594 866l-594 635h320l551 -582v582h257v-582l551 582h320l-594 -635z" />
    <glyph glyph-name="afii10025" unicode="&#x417;" 
d="M111 215l215 -215h649l215 215v401l-134 134l134 134v401l-215 215h-649l-215 -215v-250h258v121l87 86h390l86 -86l1 -190l-88 -87h-369v-258h370l86 -86l1 -189l-88 -88h-388l-88 87v120h-258v-250z" />
    <glyph glyph-name="afii10026" unicode="&#x418;" 
d="M1190 0v1500h-377l-444 -1094v1094h-258v-1500h375l446 1092v-1092h258z" />
    <glyph glyph-name="afii10027" unicode="&#x419;" 
d="M1190 0v1500h-377l-444 -1094v1094h-258v-1500h375l446 1092v-1092h258zM399 1806h147.001c-3.33301 -46.667 4.66699 -77.5 24 -92.5s45.666 -22.5 78.999 -22.5c32.667 0 58.667 7.33301 78 22s27.333 45.667 24 93h147c6.66699 -95.333 -15.333 -165.5 -66 -210.5
s-111.667 -67.5 -183 -67.5c-70 0 -130.833 22.667 -182.5 68s-74.167 115.333 -67.5 210z" />
    <glyph glyph-name="afii10028" unicode="&#x41a;" 
d="M1240 0h-293l-485 666l-93 -99v-567h-257v1500h257v-582l551 582h320l-594 -635z" />
    <glyph glyph-name="afii10029" unicode="&#x41b;" horiz-adv-x="1301" 
d="M1190 1500v-1500h-257l-1 1242h-394v-1027l-214 -215h-213v258h82l87 87v1155h910z" />
    <glyph glyph-name="afii10030" unicode="&#x41c;" horiz-adv-x="1660" 
d="M111 1500h369l350 -958l350 959h370l-1 -1501h-258v1089l-389 -1089h-143l-390 1088v-1088h-258v1500z" />
    <glyph glyph-name="afii10031" unicode="&#x41d;" 
d="M111 1500h258v-621h563v621h258v-1500h-258v621h-563v-621h-258v1500z" />
    <glyph glyph-name="afii10032" unicode="&#x41e;" 
d="M111 215l215 -215h649l215 215v1070l-215 215h-649l-215 -215v-1070zM369 1155l87 87h389l87 -87v-810l-87 -87h-389l-87 87v810z" />
    <glyph glyph-name="afii10033" unicode="&#x41f;" 
d="M111 1500h1079v-1500h-258v1242h-563v-1242h-258v1500z" />
    <glyph glyph-name="afii10034" unicode="&#x420;" 
d="M111 0h258v621h606l215 215v449l-215 215h-864v-1500zM369 1242h476l87 -87v-189l-87 -87h-476v363z" />
    <glyph glyph-name="afii10035" unicode="&#x421;" 
d="M111 215l215 -215h649l215 215v272h-258v-141l-87 -88h-389l-86 87v810l87 88h388l87 -88v-141h258v271l-215 215h-649l-215 -215v-1070z" />
    <glyph glyph-name="afii10036" unicode="&#x422;" horiz-adv-x="1221" 
d="M111 1500h999v-258h-371v-1242h-258v1242h-370v258z" />
    <glyph glyph-name="afii10037" unicode="&#x423;" horiz-adv-x="1303" 
d="M1259 1500l-605 -1500h-359v258h185l32 79l-468 1163h279l329 -816l329 816h278z" />
    <glyph glyph-name="afii10038" unicode="&#x424;" horiz-adv-x="1402" 
d="M111 341l215 -215h750l215 215v818l-215 215h-750l-215 -215v-818zM369 1029l87 87h490l87 -87v-558l-87 -87h-490l-87 87v558zM572 0h258v1500h-258v-1500z" />
    <glyph glyph-name="afii10039" unicode="&#x425;" 
d="M936 0h292l-431 750l430 750h-294l-283 -494l-285 494h-294l432 -750l-432 -750h291l288 498z" />
    <glyph glyph-name="afii10040" unicode="&#x426;" horiz-adv-x="1404" 
d="M111 0h924l1 -165h258l-1 423h-103v1242h-258v-1242h-563v1242h-258v-1500z" />
    <glyph glyph-name="afii10041" unicode="&#x427;" 
d="M111 836l215 -215h606v-621h258v1500h-258v-621h-476l-86 87v534h-259v-664z" />
    <glyph glyph-name="afii10042" unicode="&#x428;" horiz-adv-x="1869" 
d="M1758 0v1500h-258v-1242h-436v1242h-258v-1242h-436v1242h-259v-1500h1647z" />
    <glyph glyph-name="afii10043" unicode="&#x429;" horiz-adv-x="1972" 
d="M1603 0l1 -165h257v423h-103v1242h-258v-1242h-436v1242h-258v-1242h-436v1242h-259l1 -1500h1491z" />
    <glyph glyph-name="afii10044" unicode="&#x42a;" horiz-adv-x="1577" 
d="M111 1500h534v-621h606l215 -215v-449l-215 -215h-864v1242h-276v258zM645 258h476l87 87v189l-87 87h-476v-363z" />
    <glyph glyph-name="afii10045" unicode="&#x42b;" horiz-adv-x="1690" 
d="M111 1500h258v-621h606l215 -215v-449l-215 -215h-864v1500zM369 258h476l87 87v189l-87 87h-476v-363zM1321 1500h258v-1500h-258v1500z" />
    <glyph glyph-name="afii10046" unicode="&#x42c;" 
d="M111 1500h258v-621h606l215 -215v-449l-215 -215h-864v1500zM369 258h476l87 87v189l-87 87h-476v-363z" />
    <glyph glyph-name="afii10047" unicode="&#x42d;" 
d="M1190 215l-215 -215h-649l-215 215v272h258v-141l87 -88h389l88 87v276h-313v258h313v275l-89 89h-388l-87 -88v-141h-258v271l215 215h649l215 -215v-1070z" />
    <glyph glyph-name="afii10048" unicode="&#x42e;" horiz-adv-x="1687" 
d="M497 215l215 -215h649l215 215v1070l-215 215h-649l-215 -215v-405h-128v620h-258v-1500h258v621l128 1v-407zM755 1155l87 87h389l87 -87v-810l-87 -87h-389l-87 87v810z" />
    <glyph glyph-name="afii10049" unicode="&#x42f;" 
d="M1191 0h-258v621h-333l-215 -621h-274l216 621l-215 215v449l215 215h864v-1500zM933 1242h-476l-87 -87v-189l87 -87h476v363z" />
    <glyph glyph-name="afii10065" unicode="&#x430;" horiz-adv-x="1305" 
d="M45 0l447 1500h322l446 -1500h-268l-100 331h-480l-98 -331h-269zM486 589h332l-166 557z" />
    <glyph glyph-name="afii10066" unicode="&#x431;" 
d="M111 1500h954l1 -258h-697v-363h606l215 -215v-449l-215 -215h-864v1500zM369 258h476l87 87v189l-87 87h-476v-363z" />
    <glyph glyph-name="afii10067" unicode="&#x432;" 
d="M111 0h864l215 215v401l-134 134l134 134v401l-215 215h-864v-1500zM369 1242h476l87 -87v-189l-87 -87h-476v363zM369 621h476l87 -87v-189l-87 -87h-476v363z" />
    <glyph glyph-name="afii10068" unicode="&#x433;" horiz-adv-x="1221" 
d="M111 0h258v1242h741v258h-999v-1500z" />
    <glyph glyph-name="afii10069" unicode="&#x434;" horiz-adv-x="1431" 
d="M111 -165h258v165h693v-165h258v423h-103v1242h-785l-208 -1242h-113v-423zM658 1242h301v-984h-474z" />
    <glyph glyph-name="afii10070" unicode="&#x435;" horiz-adv-x="1221" 
d="M111 1500h999v-258h-741v-363h578v-258h-578v-363h741v-258h-999v1500z" />
    <glyph glyph-name="afii10072" unicode="&#x436;" horiz-adv-x="2171" 
d="M2110 0h-293l-485 666l-93 -99v-567h-257l1 568l-94 99l-485 -667l-293 -1l594 866l-594 635h320l551 -582v582h257v-582l551 582h320l-594 -635z" />
    <glyph glyph-name="afii10073" unicode="&#x437;" 
d="M111 215l215 -215h649l215 215v401l-134 134l134 134v401l-215 215h-649l-215 -215v-250h258v121l87 86h390l86 -86l1 -190l-88 -87h-369v-258h370l86 -86l1 -189l-88 -88h-388l-88 87v120h-258v-250z" />
    <glyph glyph-name="afii10074" unicode="&#x438;" 
d="M1190 0v1500h-377l-444 -1094v1094h-258v-1500h375l446 1092v-1092h258z" />
    <glyph glyph-name="afii10075" unicode="&#x439;" 
d="M1190 0v1500h-377l-444 -1094v1094h-258v-1500h375l446 1092v-1092h258zM399 1806h147.001c-3.33301 -46.667 4.66699 -77.5 24 -92.5s45.666 -22.5 78.999 -22.5c32.667 0 58.667 7.33301 78 22s27.333 45.667 24 93h147c6.66699 -95.333 -15.333 -165.5 -66 -210.5
s-111.667 -67.5 -183 -67.5c-70 0 -130.833 22.667 -182.5 68s-74.167 115.333 -67.5 210z" />
    <glyph glyph-name="afii10076" unicode="&#x43a;" 
d="M1240 0h-293l-485 666l-93 -99v-567h-257v1500h257v-582l551 582h320l-594 -635z" />
    <glyph glyph-name="afii10077" unicode="&#x43b;" horiz-adv-x="1301" 
d="M1190 1500v-1500h-257l-1 1242h-394v-1027l-214 -215h-213v258h82l87 87v1155h910z" />
    <glyph glyph-name="afii10078" unicode="&#x43c;" horiz-adv-x="1660" 
d="M111 1500h369l350 -958l350 959h370l-1 -1501h-258v1089l-389 -1089h-143l-390 1088v-1088h-258v1500z" />
    <glyph glyph-name="afii10079" unicode="&#x43d;" 
d="M111 1500h258v-621h563v621h258v-1500h-258v621h-563v-621h-258v1500z" />
    <glyph glyph-name="afii10080" unicode="&#x43e;" 
d="M111 215l215 -215h649l215 215v1070l-215 215h-649l-215 -215v-1070zM369 1155l87 87h389l87 -87v-810l-87 -87h-389l-87 87v810z" />
    <glyph glyph-name="afii10081" unicode="&#x43f;" 
d="M111 1500h1079v-1500h-258v1242h-563v-1242h-258v1500z" />
    <glyph glyph-name="afii10082" unicode="&#x440;" 
d="M111 0h258v621h606l215 215v449l-215 215h-864v-1500zM369 1242h476l87 -87v-189l-87 -87h-476v363z" />
    <glyph glyph-name="afii10083" unicode="&#x441;" 
d="M111 215l215 -215h649l215 215v272h-258v-141l-87 -88h-389l-86 87v810l87 88h388l87 -88v-141h258v271l-215 215h-649l-215 -215v-1070z" />
    <glyph glyph-name="afii10084" unicode="&#x442;" horiz-adv-x="1221" 
d="M111 1500h999v-258h-371v-1242h-258v1242h-370v258z" />
    <glyph glyph-name="afii10085" unicode="&#x443;" horiz-adv-x="1303" 
d="M1259 1500l-605 -1500h-359v258h185l32 79l-468 1163h279l329 -816l329 816h278z" />
    <glyph glyph-name="afii10086" unicode="&#x444;" horiz-adv-x="1402" 
d="M111 341l215 -215h750l215 215v818l-215 215h-750l-215 -215v-818zM369 1029l87 87h490l87 -87v-558l-87 -87h-490l-87 87v558zM572 0h258v1500h-258v-1500z" />
    <glyph glyph-name="afii10087" unicode="&#x445;" 
d="M936 0h292l-431 750l430 750h-294l-283 -494l-285 494h-294l432 -750l-432 -750h291l288 498z" />
    <glyph glyph-name="afii10088" unicode="&#x446;" horiz-adv-x="1404" 
d="M111 0h924l1 -165h258l-1 423h-103v1242h-258v-1242h-563v1242h-258v-1500z" />
    <glyph glyph-name="afii10089" unicode="&#x447;" 
d="M111 836l215 -215h606v-621h258v1500h-258v-621h-476l-86 87v534h-259v-664z" />
    <glyph glyph-name="afii10090" unicode="&#x448;" horiz-adv-x="1869" 
d="M1758 0v1500h-258v-1242h-436v1242h-258v-1242h-436v1242h-259v-1500h1647z" />
    <glyph glyph-name="afii10091" unicode="&#x449;" horiz-adv-x="1972" 
d="M1603 0l1 -165h257v423h-103v1242h-258v-1242h-436v1242h-258v-1242h-436v1242h-259l1 -1500h1491z" />
    <glyph glyph-name="afii10092" unicode="&#x44a;" horiz-adv-x="1577" 
d="M111 1500h534v-621h606l215 -215v-449l-215 -215h-864v1242h-276v258zM645 258h476l87 87v189l-87 87h-476v-363z" />
    <glyph glyph-name="afii10093" unicode="&#x44b;" horiz-adv-x="1690" 
d="M111 1500h258v-621h606l215 -215v-449l-215 -215h-864v1500zM369 258h476l87 87v189l-87 87h-476v-363zM1321 1500h258v-1500h-258v1500z" />
    <glyph glyph-name="afii10094" unicode="&#x44c;" 
d="M111 1500h258v-621h606l215 -215v-449l-215 -215h-864v1500zM369 258h476l87 87v189l-87 87h-476v-363z" />
    <glyph glyph-name="afii10095" unicode="&#x44d;" 
d="M1190 215l-215 -215h-649l-215 215v272h258v-141l87 -88h389l88 87v276h-313v258h313v275l-89 89h-388l-87 -88v-141h-258v271l215 215h649l215 -215v-1070z" />
    <glyph glyph-name="afii10096" unicode="&#x44e;" horiz-adv-x="1687" 
d="M497 215l215 -215h649l215 215v1070l-215 215h-649l-215 -215v-405h-128v620h-258v-1500h258v621l128 1v-407zM755 1155l87 87h389l87 -87v-810l-87 -87h-389l-87 87v810z" />
    <glyph glyph-name="afii10097" unicode="&#x44f;" 
d="M1191 0h-258v621h-333l-215 -621h-274l216 621l-215 215v449l215 215h864v-1500zM933 1242h-476l-87 -87v-189l87 -87h476v363z" />
    <glyph glyph-name="afii57664" unicode="&#x5d0;" 
d="M936 0h292l-283 492h30l214 216v792h-258v-662l-87 -88h-47l-432 750h-294l284 -493h-32l-213 -215v-792h258v662l87 88l47 -1z" />
    <glyph glyph-name="afii57665" unicode="&#x5d1;" horiz-adv-x="1373" 
d="M111 1500h814l215 -215v-1027h122l-1 -258h-1150v258h771v897l-86 87h-685v258z" />
    <glyph glyph-name="afii57666" unicode="&#x5d2;" horiz-adv-x="1051" 
d="M132 1500h457l215 -215v-665l173 -620h-256l-135 393l-219 -393h-293l472 841v314l-86 87h-328v258z" />
    <glyph glyph-name="afii57667" unicode="&#x5d3;" horiz-adv-x="1373" 
d="M1140 0v1242h122l-1 258h-1150v-258h771v-1242h258z" />
    <glyph glyph-name="afii57668" unicode="&#x5d4;" horiz-adv-x="1301" 
d="M111 1500h864l215 -215v-1285h-258v1155l-86 87h-735v258zM111 879h258v-879h-258v879z" />
    <glyph glyph-name="afii57669" unicode="&#x5d5;" horiz-adv-x="740" 
d="M111 1500h303l215 -215v-1285h-258v1155l-86 87h-174v258z" />
    <glyph glyph-name="afii57670" unicode="&#x5d6;" horiz-adv-x="1097" 
d="M111 1500h875v-258h-51l-346 -345v-897h-258v1027l215 215h-435v258z" />
    <glyph glyph-name="afii57671" unicode="&#x5d7;" horiz-adv-x="1301" 
d="M111 1500h864l215 -215v-1285h-258v1155l-86 87h-476l-1 -1242h-258v1500z" />
    <glyph glyph-name="afii57672" unicode="&#x5d8;" 
d="M111 215l215 -215h649l215 215v1070l-215 215h-303l1 -258h173l86 -87v-809l-87 -88h-389l-86 87v1155h-259v-1285z" />
    <glyph glyph-name="afii57673" unicode="&#x5d9;" horiz-adv-x="740" 
d="M111 1500h303l215 -215v-670h-258v540l-86 87h-174v258z" />
    <glyph glyph-name="afii57674" unicode="&#x5da;" horiz-adv-x="1251" 
d="M111 1500h814l215 -215v-1511h-258v1381l-86 87h-685v258z" />
    <glyph glyph-name="afii57675" unicode="&#x5db;" horiz-adv-x="1251" 
d="M1140 215l-215 -215h-814v258h684l86 87v810l-87 87h-683v258h814l215 -215v-1070z" />
    <glyph glyph-name="afii57676" unicode="&#x5dc;" 
d="M487 0v360l445 445v437h-821v548h258v-290h821v-801l-445 -445v-254h-258z" />
    <glyph glyph-name="afii57677" unicode="&#x5dd;" 
d="M111 0h1079v1285l-215 215h-864v-1500zM369 1242h476l87 -87v-897h-563v984z" />
    <glyph glyph-name="afii57678" unicode="&#x5de;" horiz-adv-x="1368" 
d="M364 1380l120 120h558l215 -215v-1285h-647v258h390v896l-88 88h-298l-86 -87l-141 -1155h-259l119 1081l-175 285l219 134z" />
    <glyph glyph-name="afii57679" unicode="&#x5df;" horiz-adv-x="740" 
d="M111 1500h303l215 -215v-1511h-258v1381l-86 87h-174v258z" />
    <glyph glyph-name="afii57680" unicode="&#x5e0;" horiz-adv-x="894" 
d="M266 1500h302l215 -215v-1285h-672v258h414v897l-86 87h-173v258z" />
    <glyph glyph-name="afii57681" unicode="&#x5e1;" horiz-adv-x="1362" 
d="M172 215l215 -215h649l215 215v1070l-215 215h-975v-258h111v-1027zM430 1242h476l87 -87v-810l-87 -87h-389l-87 87v897z" />
    <glyph glyph-name="afii57682" unicode="&#x5e2;" horiz-adv-x="1303" 
d="M1190 1500v-960l-542 -540h-488l1 258h313l-430 1242h273l378 -1089l239 238l-1 851h257z" />
    <glyph glyph-name="afii57683" unicode="&#x5e3;" horiz-adv-x="1301" 
d="M111 1500h864l215 -215v-1511h-258v1381l-86 87h-476v-275l86 -88h204l1 -257h-334l-216 214v664z" />
    <glyph glyph-name="afii57684" unicode="&#x5e4;" horiz-adv-x="1301" 
d="M111 1500h864l215 -215v-1070l-215 -215h-863l-1 259l734 -1l88 88v809l-87 87h-476v-275l86 -88h204l1 -257h-334l-216 214v664z" />
    <glyph glyph-name="afii57685" unicode="&#x5e5;" horiz-adv-x="1258" 
d="M68 1500l545 -1051v-675h258v738l-42 82l319 318l-1 588h-257v-478l-186 -188l-343 666h-293z" />
    <glyph glyph-name="afii57686" unicode="&#x5e6;" horiz-adv-x="1301" 
d="M111 1500l646 -1242h-645l-1 -258h934v258l-173 336l318 318v588h-257v-478l-187 -187l-344 665h-291z" />
    <glyph glyph-name="afii57687" unicode="&#x5e7;" 
d="M487 0v360l445 445v437h-821v258h1079v-801l-445 -445v-254h-258zM111 879h258v-1106h-258v1106z" />
    <glyph glyph-name="afii57688" unicode="&#x5e8;" horiz-adv-x="1251" 
d="M111 1500h814l215 -215v-1285h-258v1155l-86 87h-685v258z" />
    <glyph glyph-name="afii57689" unicode="&#x5e9;" horiz-adv-x="1513" 
d="M111 0h1076l215 215v1285h-258v-1155l-86 -87h-300l134 134l-1 1108h-257v-978l-265 -264v1242h-258v-1500z" />
    <glyph glyph-name="afii57690" unicode="&#x5ea;" horiz-adv-x="1368" 
d="M60 1500h981l215 -215v-1285h-258v1155l-86 87h-436l1 -1027l-215 -215l-203 1v257h73l87 87l-1 897h-158v258z" />
    <glyph glyph-name="endash" unicode="&#x2013;" 
d="M111 879h1079v-258h-1079v258z" />
    <glyph glyph-name="emdash" unicode="&#x2014;" horiz-adv-x="1661" 
d="M111 879h1439v-258h-1439v258z" />
    <glyph glyph-name="quoteleft" unicode="&#x2018;" horiz-adv-x="499" 
d="M388 1001h-277v277l142 220l117 -76l-96 -144h114v-277z" />
    <glyph glyph-name="quoteright" unicode="&#x2019;" horiz-adv-x="499" 
d="M111 1499h277v-277l-142 -220l-117 76l96 144h-114v277z" />
    <glyph glyph-name="quotesinglbase" unicode="&#x201a;" horiz-adv-x="499" 
d="M111 342h277v-277l-142 -220l-117 76l96 144h-114v277z" />
    <glyph glyph-name="quotedblleft" unicode="&#x201c;" horiz-adv-x="868" 
d="M757 1002h-277v277l142 220l117 -76l-96 -144h114v-277zM388 1002h-277v277l142 220l117 -76l-96 -144h114v-277z" />
    <glyph glyph-name="quotedblright" unicode="&#x201d;" horiz-adv-x="868" 
d="M111 1498h277v-277l-142 -220l-117 76l96 144h-114v277zM480 1498h277v-277l-142 -220l-117 76l96 144h-114v277z" />
    <glyph glyph-name="quotedblbase" unicode="&#x201e;" horiz-adv-x="868" 
d="M111 342h277v-277l-142 -220l-117 76l96 144h-114v277zM480 342h277v-277l-142 -220l-117 76l96 144h-114v277z" />
    <glyph glyph-name="dagger" unicode="&#x2020;" horiz-adv-x="984" 
d="M522 -1h-66.001c-17.333 290 -51 560 -101 810c37.333 51.333 60.5 85.166 69.5 101.499s12.833 44.833 11.5 85.5c-8.66699 3.33301 -20.334 3 -35.001 -1c-21.333 -6.66699 -51.666 -19.834 -90.999 -39.501s-71.666 -29.5 -96.999 -29.5
c-31.333 0 -58.166 9.66699 -80.499 29s-33.5 49.333 -33.5 90c0 41.333 11 71.333 33 90s48 28 78 28c25.333 0 63 -11.833 113 -35.5s87.667 -35.167 113 -34.5c2 44 -5.33301 94.333 -22 151c-18.667 37.333 -30.5 64 -35.5 80s-7.5 32.333 -7.5 49
c0 36 11.667 65.167 35 87.5s51 33.5 83 33.5c32.667 0 61.167 -10.833 85.5 -32.5s36.5 -51.167 36.5 -88.5c0 -19.333 -2.66699 -37 -8 -53s-17.5 -40.833 -36.5 -74.5s-25.833 -63.5 -20.5 -89.5c-6 -18 -7.33301 -39 -4 -63c16.667 -4.66699 32.167 -4.16699 46.5 1.5
s41.833 18.834 82.5 39.501c28 14 45.333 22.333 52 25c14 3.33301 29 5 45 5c33.333 0 61.166 -9.66699 83.499 -29s33.5 -50 33.5 -92c0 -40 -11 -69.333 -33 -88s-48.333 -28 -79 -28c-16.667 0 -33 2 -49 6c-9.33301 3.33301 -35.333 15.5 -78 36.5
s-77.334 29.833 -104.001 26.5c8.66699 -73.333 36.334 -135.666 83.001 -186.999c-50.667 -250 -85 -520 -103 -810z" />
    <glyph glyph-name="daggerdbl" unicode="&#x2021;" horiz-adv-x="987" 
d="M619 541h-250.001c62.667 135.333 59 294.666 -11 477.999c37.333 51.333 60.5 85.166 69.5 101.499s12.833 44.833 11.5 85.5c-8.66699 3.33301 -20.334 3 -35.001 -1c-21.333 -6.66699 -51.666 -19.834 -90.999 -39.501s-71.666 -29.5 -96.999 -29.5
c-31.333 0 -58.166 9.66699 -80.499 29s-33.5 49.333 -33.5 90c0 41.333 11 71.333 33 90s48 28 78 28c25.333 0 63 -11.833 113 -35.5s87.667 -35.167 113 -34.5c2 44 -5.33301 94.333 -22 151c-18.667 37.333 -30.5 64 -35.5 80s-7.5 32.333 -7.5 49
c0 36 11.667 65.167 35 87.5s51 33.5 83 33.5c32.667 0 61.167 -10.833 85.5 -32.5s36.5 -51.167 36.5 -88.5c0 -19.333 -2.66699 -37 -8 -53s-17.5 -40.833 -36.5 -74.5s-25.833 -63.5 -20.5 -89.5c-6 -18 -7.33301 -39 -4 -63c16.667 -4.66699 32.167 -4.16699 46.5 1.5
s41.833 18.834 82.5 39.501c28 14 45.333 22.333 52 25c14 3.33301 29 5 45 5c33.333 0 61.166 -9.66699 83.499 -29s33.5 -50 33.5 -92c0 -40 -11 -69.333 -33 -88s-48.333 -28 -79 -28c-16.667 0 -33 2 -49 6c-9.33301 3.33301 -35.333 15.5 -78 36.5
s-77.334 29.833 -104.001 26.5c8.66699 -73.333 36.334 -135.666 83.001 -186.999c-70.667 -183.333 -73.667 -342.666 -9 -477.999zM368.999 973h248.001c-62.667 -140 -58.667 -298.333 12 -475c-37.333 -51.333 -60.5 -85.166 -69.5 -101.499
s-12.833 -44.833 -11.5 -85.5c8.66699 -3.33301 20.334 -3 35.001 1c21.333 6.66699 51.666 19.834 90.999 39.501s71.666 29.5 96.999 29.5c31.333 0 58.166 -9.66699 80.499 -29s33.5 -49.333 33.5 -90c0 -41.333 -11 -71.333 -33 -90s-48 -28 -78 -28
c-25.333 0 -63 11.833 -113 35.5s-87.667 35.167 -113 34.5c-2 -44 5.33301 -94.333 22 -151c18.667 -37.333 30.5 -64 35.5 -80s7.5 -32.333 7.5 -49c0 -36 -11.667 -65.167 -35 -87.5s-51 -33.5 -83 -33.5c-32.667 0 -61.167 10.833 -85.5 32.5s-36.5 51.167 -36.5 88.5
c0 19.333 2.66699 37 8 53s17.5 40.833 36.5 74.5s25.833 63.5 20.5 89.5c6 18 7.33301 39 4 63c-16.667 4.66699 -32.167 4.16699 -46.5 -1.5s-41.833 -18.834 -82.5 -39.501c-28 -14 -45.333 -22.333 -52 -25c-14 -3.33301 -29 -5 -45 -5
c-33.333 0 -61.166 9.66699 -83.499 29s-33.5 50 -33.5 92c0 40 11 69.333 33 88s48.333 28 79 28c16.667 0 33 -2 49 -6c9.33301 -3.33301 35.333 -15.5 78 -36.5s77.334 -29.833 104.001 -26.5c-8.66699 73.333 -36.334 135.666 -83.001 186.999
c70 176.667 73.333 335 10 475z" />
    <glyph glyph-name="bullet" unicode="&#x2022;" horiz-adv-x="744" 
d="M111 760c0 69.333 27.167 130.001 81.5 182.001s117.5 78 189.5 78c70 0 129.167 -24.5 177.5 -73.5s72.5 -110.5 72.5 -184.5s-25.5 -136.333 -76.5 -187s-112.5 -76 -184.5 -76c-70 0 -130.833 25.667 -182.5 77s-77.5 112.666 -77.5 183.999z" />
    <glyph glyph-name="ellipsis" unicode="&#x2026;" horiz-adv-x="1558" 
d="M111 258h258v-258h-258v258zM650 258h258v-258h-258v258zM1189 258h258v-258h-258v258z" />
    <glyph glyph-name="perthousand" unicode="&#x2030;" horiz-adv-x="2103" 
d="M396 229l-182 181l896 898l182 -182zM111 1143c0 79.333 30.833 148.67 92.5 208.003s133.5 89 215.5 89c80 0 147.5 -27.833 202.5 -83.5s82.5 -125.834 82.5 -210.501s-29 -155.834 -87 -213.501s-128 -86.5 -210 -86.5c-79.333 0 -148.5 29.167 -207.5 87.5
s-88.5 128.166 -88.5 209.499zM338 1073c19.333 -19.333 42.332 -29.001 68.999 -29.001c27.333 0 50.5 9.5 69.5 28.5s28.5 42.833 28.5 71.5c0 28 -9 51.333 -27 70s-40.333 28 -67 28c-27.333 0 -51.166 -10 -71.499 -30s-30.5 -43 -30.5 -69
c0 -27.333 9.66699 -50.666 29 -69.999zM762.999 361.003c0 79.333 30.833 148.67 92.5 208.003s133.5 89 215.5 89c80 0 147.5 -27.833 202.5 -83.5s82.5 -125.834 82.5 -210.501s-29 -155.834 -87 -213.501s-128 -86.5 -210 -86.5c-79.333 0 -148.5 29.167 -207.5 87.5
s-88.5 128.166 -88.5 209.499zM989.999 291.007c19.333 -19.333 42.332 -29.001 68.999 -29.001c27.333 0 50.5 9.5 69.5 28.5s28.5 42.833 28.5 71.5c0 28 -9 51.333 -27 70s-40.333 28 -67 28c-27.333 0 -51.166 -10 -71.499 -30s-30.5 -43 -30.5 -69
c0 -27.333 9.66699 -50.666 29 -69.999zM1399 361.006c0 79.333 30.833 148.67 92.5 208.003s133.5 89 215.5 89c80 0 147.5 -27.833 202.5 -83.5s82.5 -125.834 82.5 -210.501s-29 -155.834 -87 -213.501s-128 -86.5 -210 -86.5c-79.333 0 -148.5 29.167 -207.5 87.5
s-88.5 128.166 -88.5 209.499zM1626 291.01c19.333 -19.333 42.332 -29.001 68.999 -29.001c27.333 0 50.5 9.5 69.5 28.5s28.5 42.833 28.5 71.5c0 28 -9 51.333 -27 70s-40.333 28 -67 28c-27.333 0 -51.166 -10 -71.499 -30s-30.5 -43 -30.5 -69
c0 -27.333 9.66699 -50.666 29 -69.999z" />
    <glyph glyph-name="guilsinglleft" unicode="&#x2039;" horiz-adv-x="650" 
d="M34 445l443 445l139 -138l-307 -307l307 -307l-139 -138z" />
    <glyph glyph-name="guilsinglright" unicode="&#x203a;" horiz-adv-x="650" 
d="M616 445l-443 445l-139 -138l307 -307l-307 -307l139 -138z" />
    <glyph glyph-name="fraction" unicode="&#x2044;" 
d="M293 211l-182 181l896 898l182 -182z" />
    <glyph glyph-name="Euro" unicode="&#x20ac;" 
d="M241 798l-180.003 -0.000976562l-60 -149h224c-1.33301 -23.333 -1 -46.333 1 -69h-165l-59 -149h243c24 -92.667 88.333 -188.667 193 -288s242.334 -149.666 413.001 -150.999c172.667 2 306.667 50.667 402 146v252c-110 -156.667 -245.333 -235.667 -406 -237
c-113.333 1.33301 -208.666 34.5 -285.999 99.5s-124 124.5 -140 178.5h616l59 149h-706c-2.66699 24 -2.66699 47 0 69h733l60 149h-766c30 74.667 86.167 138.334 168.5 191.001s177.5 79.334 285.5 80.001c58 0 116 -8.16699 174 -24.5s121.667 -56.833 191 -121.5
l61 158c-113.333 112 -254.666 168 -423.999 168c-162.667 -0.666992 -302.167 -50.834 -418.5 -150.501s-187.5 -199.834 -213.5 -300.501z" />
    <glyph glyph-name="trademark" unicode="&#x2122;" horiz-adv-x="1476" 
d="M111 1500h481v-124h-178v-599h-125v599h-178v124zM673 1500h178l168 -461l169 461h177v-722h-124v524l-187 -524h-69l-188 523v-523h-124v722z" />
    <glyph glyph-name="Omega" unicode="&#x2126;" 
d="M1190 1285l-215 215h-649l-215 -215l1 -815l213 -213h-213v-257h444v384l-188 186v584l88 88h389l86 -87v-587l-186 -185l1 -383h444v258l-213 -1l213 214v814z" />
    <glyph glyph-name="partialdiff" unicode="&#x2202;" horiz-adv-x="1188" 
d="M1077 215l-215 -215h-536l-215 215v629l215 215l493 1v96l-88 87h-195v257h326l215 -215v-1070zM819 801h-363l-87 -87v-369l87 -87h276l87 87v456z" />
    <glyph glyph-name="Delta" unicode="&#x2206;" horiz-adv-x="1305" 
d="M390 257h524l-262 889zM45 0l447 1500h322l446 -1500h-1215z" />
    <glyph glyph-name="product" unicode="&#x220f;" 
d="M111 1500h1079v-1500h-258v1242h-563v-1242h-258v1500z" />
    <glyph glyph-name="summation" unicode="&#x2211;" horiz-adv-x="1222" 
d="M112 0v299l448 451l-449 450v300h1000v-259h-674l433 -419v-143l-432 -421h673v-258h-999z" />
    <glyph glyph-name="radical" unicode="&#x221a;" horiz-adv-x="1238" 
d="M864 1500h263v-221h-96l-419 -1282h-184l-188 593l-104 -41l-64 182l377 189l115 -375z" />
    <glyph glyph-name="infinity" unicode="&#x221e;" 
d="M1035 410l155 155v373l-155 155h-288l-97 -96l-96 96h-288l-155 -155v-373l155 -155h288l96 96l97 -96h288zM379 616l-62 62v147l62 62h106l63 -62v-147l-63 -62h-106zM816 616l-63 62v147l63 62h106l62 -62v-147l-62 -62h-106z" />
    <glyph glyph-name="integral" unicode="&#x222b;" horiz-adv-x="891" 
d="M111 -120h255l215 215v1180l88 88h111v257h-242l-215 -215v-1179l-87 -89h-125v-257z" />
    <glyph glyph-name="approxequal" unicode="&#x2248;" horiz-adv-x="1132" 
d="M1021 980l-36.999 -55.002c-26 -38.667 -58.167 -74.167 -96.5 -106.5s-89.166 -48.5 -152.499 -48.5c-55.333 0 -128 30 -218 90c-37.333 27.333 -72 41 -104 41c-35.333 -1.33301 -61.833 -9.16602 -79.5 -23.499s-41.5 -45.5 -71.5 -93.5l-151 148l30 44
c20 31.333 53 66.833 99 106.5s101 59.5 165 59.5s132.667 -29.667 206 -89c32 -24 59.667 -38 83 -42c25.333 -3.33301 47.166 -1.16602 65.499 6.50098s40.166 24.5 65.499 50.5l41 56zM1021 579.998l-36.999 -55.002c-26 -38.667 -58.167 -74.167 -96.5 -106.5
s-89.166 -48.5 -152.499 -48.5c-55.333 0 -128 30 -218 90c-37.333 27.333 -72 41 -104 41c-35.333 -1.33301 -61.833 -9.16602 -79.5 -23.499s-41.5 -45.5 -71.5 -93.5l-151 148l30 44c20 31.333 53 66.833 99 106.5s101 59.5 165 59.5s132.667 -29.667 206 -89
c32 -24 59.667 -38 83 -42c25.333 -3.33301 47.166 -1.16602 65.499 6.50098s40.166 24.5 65.499 50.5l41 56z" />
    <glyph glyph-name="approxequal" unicode="&#x22f2;" horiz-adv-x="1132" 
d="M1021 980l-36.999 -55.002c-26 -38.667 -58.167 -74.167 -96.5 -106.5s-89.166 -48.5 -152.499 -48.5c-55.333 0 -128 30 -218 90c-37.333 27.333 -72 41 -104 41c-35.333 -1.33301 -61.833 -9.16602 -79.5 -23.499s-41.5 -45.5 -71.5 -93.5l-151 148l30 44
c20 31.333 53 66.833 99 106.5s101 59.5 165 59.5s132.667 -29.667 206 -89c32 -24 59.667 -38 83 -42c25.333 -3.33301 47.166 -1.16602 65.499 6.50098s40.166 24.5 65.499 50.5l41 56zM1021 579.998l-36.999 -55.002c-26 -38.667 -58.167 -74.167 -96.5 -106.5
s-89.166 -48.5 -152.499 -48.5c-55.333 0 -128 30 -218 90c-37.333 27.333 -72 41 -104 41c-35.333 -1.33301 -61.833 -9.16602 -79.5 -23.499s-41.5 -45.5 -71.5 -93.5l-151 148l30 44c20 31.333 53 66.833 99 106.5s101 59.5 165 59.5s132.667 -29.667 206 -89
c32 -24 59.667 -38 83 -42c25.333 -3.33301 47.166 -1.16602 65.499 6.50098s40.166 24.5 65.499 50.5l41 56z" />
    <glyph glyph-name="notequal" unicode="&#x2260;" horiz-adv-x="1197" 
d="M111 1097h975v-258h-975v258zM111 661h975v-258h-975v258zM414 165l-222 129l606 1034l222 -130z" />
    <glyph glyph-name="lessequal" unicode="&#x2264;" horiz-adv-x="1051" 
d="M112 931l628 630l183 -182l-449 -449l449 -448l-183 -182zM111 238h829v-238h-829v238z" />
    <glyph glyph-name="greaterequal" unicode="&#x2265;" horiz-adv-x="1050" 
d="M938 931l-628 630l-183 -182l449 -449l-449 -448l183 -182zM939 238h-829v-238h829v238z" />
    <glyph glyph-name="lozenge" unicode="&#x25ca;" horiz-adv-x="1104" 
d="M111 748l353 -684v0h176l353 684v0l-353 683v0h-176zM746 746l-196 -383l-192 383l192 386z" />
    <glyph glyph-name=".null" horiz-adv-x="0" 
 />
    <glyph glyph-name="nonmarkingreturn" horiz-adv-x="390" 
 />
    <glyph glyph-name="pi" 
d="M111 1192h1079v-258h-110v-677h50v-257h-168l-120 120v814h-363v-934h-238v934h-130v258z" />
    </font>
</defs>
</svg>
